<?xml version="1.0" encoding="UTF-8" standalone="no"?>
<!-- Created with Inkscape (http://www.inkscape.org/) -->

<svg
   xmlns:dc="http://purl.org/dc/elements/1.1/"
   xmlns:cc="http://creativecommons.org/ns#"
   xmlns:rdf="http://www.w3.org/1999/02/22-rdf-syntax-ns#"
   xmlns:svg="http://www.w3.org/2000/svg"
   xmlns="http://www.w3.org/2000/svg"
   version="1.1"
   width="0.90090001in"
   height="2in"
   viewBox="0 0 450 999"
   id="svg2">
  <metadata
     id="metadata50">
    <rdf:RDF>
      <cc:Work
         rdf:about="">
        <dc:format>image/svg+xml</dc:format>
        <dc:type
           rdf:resource="http://purl.org/dc/dcmitype/StillImage" />
        <dc:title></dc:title>
      </cc:Work>
    </rdf:RDF>
  </metadata>
  <defs
     id="defs48" />
  <path
     d="m 282,616 0,304 170,76 -449,0 169,-76 0,-304 -8,-2 -9,-2 -8,-3 -8,-3 -8,-3 -8,-4 -7,-3 -7,-5 -15,-8 -7,-6 -6,-4 -12,-11 -6,-6 -5,-6 -6,-5 -4,-7 -5,-6 -5,-7 -2,-3 -1,-4 -4,-7 -3,-7 -4,-7 -3,-8 -2,-7 -2,-8 -2,-8 -1,-7 -1,-8 0,-8 -1,-8 0,-435 427,0 0,435 0,8 -1,8 -1,8 0,7 -2,7 -2,8 -3,8 -2,7 -4,7 -2,7 -5,7 -3,8 -9,12 -5,7 -6,5 -5,6 -5,6 -13,11 -6,4 -7,6 -6,4 -7,4 -8,5 -7,3 -8,4 -8,3 -8,3 -8,3 -7,2 -9,3 z"
     id="path4"
     style="fill:#000000" />
  <path
     d="m 279,616 6,0 0,304 -6,0 z"
     id="path6"
     style="fill:#000000" />
  <path
     d="m 283,917 -2,6 169,76 2,-7 -169,-75 z"
     id="path8"
     style="fill:#000000" />
  <ellipse
     cx="282"
     cy="920"
     rx="3"
     ry="3"
     id="ellipse10"
     style="fill:#000000" />
  <path
     d="m 3,992 449,0 0,7 -449,0 z"
     id="path12"
     style="fill:#000000" />
  <ellipse
     cx="451"
     cy="995"
     rx="3"
     ry="3"
     id="ellipse14"
     style="fill:#000000" />
  <path
     d="m 1,992 3,7 170,-76 -3,-6 -170,75 z"
     id="path16"
     style="fill:#000000" />
  <ellipse
     cx="3"
     cy="995"
     rx="3"
     ry="3"
     id="ellipse18"
     style="fill:#000000" />
  <path
     d="m 169,616 6,0 0,304 -6,0 z"
     id="path20"
     style="fill:#000000" />
  <ellipse
     cx="172"
     cy="920"
     rx="3"
     ry="3"
     id="ellipse22"
     style="fill:#000000" />
  <path
     d="m 171,619 -8,-2 -9,-3 -9,-2 -7,-3 -8,-4 -8,-3 -8,-4 -7,-4 -14,-9 -7,-5 -7,-5 -13,-11 -5,-5 -5,-6 -6,-7 -5,-6 -5,-7 -4,-6 -2,-4 -2,-3 -3,-7 -5,-8 -3,-7 -2,-7 -3,-8 -2,-8 -2,-8 -1,-8 -1,-7 -1,-8 0,-9 6,0 0,8 1,8 1,8 1,7 2,7 1,8 3,7 3,7 3,8 4,7 3,7 2,3 2,4 4,6 5,6 5,6 5,6 5,6 6,6 12,10 6,6 7,4 14,9 7,4 7,4 8,3 8,3 8,3 8,3 8,3 9,1 z"
     id="path24"
     style="fill:#000000" />
  <ellipse
     cx="172"
     cy="616"
     rx="3"
     ry="3"
     id="ellipse26"
     style="fill:#000000" />
  <path
     d="m 9,0 6,0 0,435 -6,0 z"
     id="path28"
     style="fill:#000000" />
  <ellipse
     cx="12"
     cy="435"
     rx="3"
     ry="3"
     id="ellipse30"
     style="fill:#000000" />
  <path
     d="m 12,-4 427,0 0,5 -427,0 z"
     id="path32"
     style="fill:#000000" />
  <ellipse
     cx="12"
     cy="-1"
     rx="3"
     ry="2"
     id="ellipse34"
     style="fill:#000000" />
  <path
     d="m 437,0 6,0 0,435 -6,0 z"
     id="path36"
     style="fill:#000000" />
  <ellipse
     cx="440"
     cy="-1"
     rx="3"
     ry="2"
     id="ellipse38"
     style="fill:#000000" />
  <path
     d="m 443,435 0,8 -1,8 -1,8 -2,7 -2,8 -1,8 -3,8 -3,7 -2,8 -4,7 -4,7 -4,7 -8,13 -6,7 -5,6 -5,6 -6,5 -13,11 -6,5 -7,5 -6,5 -8,4 -7,4 -8,4 -7,4 -8,3 -8,3 -9,3 -8,2 -8,3 -2,-7 9,-1 8,-3 8,-3 7,-2 8,-4 7,-3 8,-4 7,-4 7,-5 7,-4 7,-4 6,-6 11,-10 6,-5 6,-7 5,-5 4,-7 9,-12 4,-7 3,-6 4,-7 3,-8 3,-7 2,-7 1,-8 2,-7 2,-7 1,-8 1,-9 0,-7 z"
     id="path40"
     style="fill:#000000" />
  <ellipse
     cx="440"
     cy="434"
     rx="3"
     ry="3"
     id="ellipse42"
     style="fill:#000000" />
  <ellipse
     cx="282"
     cy="615"
     rx="3"
     ry="3"
     id="ellipse44"
     style="fill:#000000" />
</svg>
