<?xml version="1.0" encoding="utf-8"?>
<!DOCTYPE svg PUBLIC "-//W3C//DTD SVG 1.1//EN" "http://www.w3.org/Graphics/SVG/1.1/DTD/svg11.dtd">
<svg version="1.1" id="Layer_1" xmlns="http://www.w3.org/2000/svg" xmlns:xlink="http://www.w3.org/1999/xlink" x="0px" y="0px"
	 viewBox="0 0 1920 1357" enable-background="new 0 0 1920 1357" xml:space="preserve">
<g id="_x23_2f2f2fff">
	<path fill="#2F2F2F" stroke="#2F2F2F" stroke-width="0.0938" d="M265.09,0h21.19c3.37,4.53,5.28,9.97,8.08,14.86
		C304.2,9.72,314.05,4.6,324.15,0h44.03c-22.03,9.43-43.35,20.46-64.31,32.06c31.37,55.91,70.15,107.61,114.72,153.67
		c38.13-36.9,80.5-69.47,126.19-96.46C527.98,61.02,514.2,31.02,503.37,0h15.74c1.32,0.44,1.3,2.09,1.85,3.16
		c9.17,27.47,21.35,53.9,35.49,79.16c45.37-25.66,93.6-46.24,143.56-61.11c-2.4-6.92-3.85-14.1-5.56-21.21h14.15
		c1.06,5.95,2.62,11.79,4.05,17.66C740.16,9.96,768.21,4.36,796.43,0h30.88c-38.13,5.11-75.92,12.96-112.72,24.22
		c7.04,22.8,17.18,44.64,30.18,64.66c39.38-25.82,81.52-47.37,125.28-64.73c-3.21-7.69-5.04-15.9-6.09-24.15h13.58
		c0.25,6.74,2.23,13.26,4.4,19.6c18.01-6.53,36.11-12.86,54.6-17.85c1.42-0.4,2.77-0.98,4.05-1.75h3.89
		c-1.27,0.09-2.52,0.25-3.75,0.49c-0.81,0.62-1.66,1.11-2.58,1.49c-18.64,6.1-37.35,12.17-55.4,19.89
		c3.19,7.21,7.06,14.17,12.07,20.29c14.11-11.45,28.59-22.47,43.52-32.85c4.11-2.76,8.05-5.82,12.44-8.15
		c-18.75,13.48-36.95,27.72-54.71,42.48c4.91,5.99,10.87,11.05,17.3,15.36c10.82-16.65,22.11-33,33.99-48.92
		c1.74-2.45,3.55-4.86,5.62-7.05c-13.14,18.68-25.8,37.7-38.02,57c6.45,3.93,13.38,7.08,20.65,9.15
		c6.4-22.18,12.62-44.46,20.27-66.23c-6.25,22.24-12.54,44.47-18.3,66.84c7.24,1.74,14.65,2.57,22.09,2.53
		c-0.01-8.46-0.71-16.9-0.68-25.36c0.06-14.72-1.3-29.44-0.45-44.15c0.25,4.06,0.08,8.13,0.31,12.18
		c1.39,19.04,1.67,38.12,2.78,57.17c7.49-0.19,14.87-1.78,21.99-4.04c-7.81-22.51-15.58-45.04-24.07-67.3
		c9.55,21.82,17.81,44.19,25.8,66.62c7.1801-2.47,13.9-6.15,20.08-10.55c-13.61-18.65-27.88-36.83-42.49-54.71
		c15.78,16.95,29.96,35.3,44.17,53.57c5.97-4.9,11.62-10.28,16.09-16.61c-17.39-12.71-35.42-24.52-53.64-35.99
		c-1.01-0.7-2.12-0.99-3.34-0.87C966.28,1.74,966.4,0.67,966.46,0.13c-0.19-0.03-0.57-0.1-0.76-0.13h1.4
		c0.1,0.4,0.31,1.19,0.42,1.59c19.69,10.84,38.39,23.32,57.04,35.83c4.3999-6.64,8.0299-13.8,10.48-21.39
		c-17.8701-5.72-36.02-10.45-54.21-14.96c2.24-0.59,4.5,0.19,6.72,0.58c16.16,3.64,32.27,7.56,48.1301,12.36
		c1.0599-4.02,1.97-8.09,2.5399-12.22c3.86,0.28,7.7001,1.3,11.61,0.93l0.01-0.21c-4.0699-1.58-8.73-0.29-12.58-2.51h22.52
		c47.28,5.52,94.0599,15.74,139.1699,31.02c3.4-10.16,6.0701-20.55,8.3301-31.02h14.01c-2.6801,11.92-5.79,23.76-10.03,35.24
		c47.6799,17.05,93.54,39.31,136.2,66.61C1367.73,70.07,1383.98,35.75,1395.9,0h16.4399c-13.2999,38.36-31.27,75.15-53.8199,108.92
		c42.5,28.24,81.9399,61.13,117.0599,98.16c44.36-42.18,83.52-89.83,116.28-141.54c-41.62-25.94-85.54-48.31-131.49-65.54h40.54
		c16.22,6.26,31.99,13.67,47.61,21.29c18.0699,9.03,36.01,18.5,53.12,29.21c3.6799-7.68,8.48-14.77,12.46-22.32
		c5.16-9.28,10.14-18.67,14.89-28.18h21.5601c-10.4801,20.32-21.78,40.25-34.2301,59.44c33.3101,21,64.8101,44.87,94.2301,71.05
		c23.76,21.04,46.22,43.6,66.7899,67.78c13.9-11.39,26.92-23.82,40.16-35.96c36.15-34.46,70.83-70.59,102.5-109.21v37.88
		c-40.5601,43.54-83.91,84.49-129.96,122.19c37.4099,45.56,69.24,95.7,94.6,148.92c6.87,14.72,13.8199,29.46,19.28,44.77
		c5.51-1.65,10.7899-3.98,16.08-6.23v22.3c-2.76,1.02-5.53,1.97-8.25,3.02c1.51,5.64,3.79,11.04,5.5,16.62
		c0.67,1.7,0.91,3.83,2.75,4.77v127.83c-0.13-9.91-2.64-19.58-4.1899-29.32c-6.8101-37.64-17-74.63-29.4901-110.77
		c-42.86,15.15-86.0599,29.31-129.61,42.33c-37.87,11.47-76.09,21.75-114.35,31.8c12.98,49.95,19.78,101.51,20.84,153.09
		c85.6101-1.68,171.2001-4.05,256.8-6.21v19.22c-85.52,0.05-171.03,0.36-256.55,0.34c-0.0199,51.66-5.8099,103.3199-17.3999,153.67
		c83.38,18.96,165.8199,41.91,247.3199,67.75c9.64-30.85,17.6-62.24,23.1801-94.09c1.2-6.12,1.8099-12.35,3.45-18.38V927.03
		c-2.52-0.96-5.08-1.84-7.5699-2.8c-13.4901,38.21-30.65,75.08-50.4501,110.41c-17.36,30.6799-36.54,60.4399-58.45,88.0699
		c40.76,31.1001,79.45,64.86,116.47,100.3101v34.91c-40.0699-42.78-83.09-82.8301-128.62-119.7401
		c-44.9,55.4701-98.28,104.0701-157.45,143.9601c16.2799,24.14,31.2699,49.14,44.95,74.85H1656
		c-11.47-22.15-23.8101-43.86-37.35-64.8199c-35.2101,22.73-72.5601,42.11-111.1901,58.36c-5.46,2.2-10.7999,4.77-16.45,6.46h-41.23
		c56-19.95,109.25-47.35,158.6799-80.33c-34.8999-51.99-76.25-99.62-122.52-141.79c-34.22,37.78-72.86,71.55-114.7,100.66
		c26.17,37.37,46.95,78.4399,62.09,121.46h-17.25c-13.5299-40.25-32.45-78.65-55.97-113.99c-42.08,28.36-87.5699,51.61-134.95,69.74
		c5.73,14.3101,9.65,29.25,13.0699,44.25H1224c-2.77-13.46-6.4-26.73-10.99-39.6801c-47.3201,16.8601-96.4401,28.87-146.33,34.8601
		c0.13,1.59,0.2799,3.1899,0.45,4.8199h-13.24c-0.01-0.79-0.05-2.38-0.0701-3.17c-13.72,1.37-27.49,2.14-41.2299,3.17H975.85
		c25.1-0.66,50.2101-2.22,75.0801-5.6801c8.09-3.08,16.87-1.85,25.2-3.6599c45.79-7.76,90.8-20.0801,134.1-36.9
		c-0.0599-0.59-0.1799-1.77-0.24-2.36c3.96-1.13,7.5701-3.1901,11.49-4.41c0.29,0.47,0.88,1.4,1.17,1.87
		c46.21-19.16,90.4-43.1899,131.39-71.88c-0.7201-0.91-1.4301-1.8099-2.11-2.7c3.6699-2.51,7.24-5.17,10.85-7.76
		c0.4299,0.6899,1.28,2.08,1.71,2.78c40.71-29.0801,77.55-63.4301,110.78-100.79c-1.11-1.08-2.23-2.15-3.3101-3.1901
		c3.03-3.1499,5.6901-6.62,8.62-9.87c1.14,0.9301,2.3101,1.88,3.4701,2.8501c32.13-38.3,60.21-80.02,83.33-124.36
		c-1.58-0.93-3.16-1.82-4.71-2.75c2.34-3.73,4.11-7.76,6.13-11.66c1.5399,0.8,3.11,1.61,4.6799,2.43
		c22.21-45.06,39.72-92.48,51.48-141.33c-1.87-0.42-3.72-0.8-5.5499-1.2c1.0399-4.15,2.0299-8.31,2.85-12.51
		c1.88,0.39,3.75,0.79,5.67,1.19c10.97-48.99,16.48-99.21,16.4099-149.41c-1.97,0.02-3.9099,0.05-5.84,0.1
		c-0.03-4.29-0.0699-8.58-0.21-12.86c1.95-0.08,3.9399-0.14,5.9399-0.21c-1.08-50.27-7.64-100.45-19.74-149.26
		c-1.87,0.47-3.6899,0.96-5.52,1.44c-1-4.3-2.12-8.56-3.23-12.82c1.8101-0.49,3.62-0.97,5.47-1.43
		c-12.9299-48.41-31.3199-95.34-54.51-139.75c-1.5599,0.82-3.12,1.64-4.6599,2.46c-1.9501-3.91-3.9301-7.81-6.23-11.53
		c1.5199-0.89,3.0599-1.78,4.61-2.68c-24.2201-43.95-53.2101-85.28-86.4401-122.9c-1.16,0.99-2.28,1.97-3.4199,2.94
		c-2.65-3.27-5.4701-6.39-8.3701-9.42c1-1.1,2.04-2.19,3.0801-3.28c-33.9501-36.77-71.79-69.92-112.86-98.52
		c-0.7001,0.93-1.38,1.86-2.05,2.8c-3.39-2.56-6.89-4.95-10.45-7.24c0.59-0.9,1.2-1.81,1.83-2.71
		c-41.47-27.85-86.16-50.88-132.73-68.93c-0.33,0.46-1,1.37-1.33,1.82c-3.75-1.62-7.5701-3.08-11.4601-4.33
		c0.11-0.54,0.3201-1.64,0.4301-2.18c-46.89-16.86-95.54-29.03-144.99-35.29c-0.17,0.27-0.51,0.81-0.6801,1.08
		c-0.02,5.05-1.59,9.9-2.96,14.7c45.79,14.05,89.95,33.28,131.8099,56.53c5.8-10.39,10.7201-21.24,15.26-32.23
		c4.1801-0.35,8.2101,2.54,12.0801,4.11c-4.88,11.7-10.26,23.24-16.8501,34.09c39.87,23.4,77.5,50.63,112.01,81.42
		c12-13.58,23.3501-27.76,33.7101-42.64c0.5699-0.78,1.22-1.49,1.95-2.14c3.8101,1.62,7,4.42,10.14,7.08
		c-11.3101,16.03-23.8101,31.23-37.14,45.62c32.97,30.4,62.96,64.05,89.36,100.31c16.2101-11.85,31.9601-24.32,47.2001-37.39
		c3.6499-2.94,6.84-6.47,10.76-9.05c3.3099,1.4,5.2699,5.02,7.59,7.69c1.45,1.19-0.64,2.52-1.36,3.41
		c-18.4601,15.75-37.62,30.72-57.51,44.63c25.26,35.82,47.0599,74.08,65.0699,114.05c26.53-11.89,52.65-24.73,78.23-38.54
		c2.9401,3.08,5.3,7.19,5.9,11.38c-5.9,3.8-12.47,6.46-18.6799,9.71c-20,9.78-40.14,19.34-60.7101,27.86
		c16.65,39.64,30.4,80.59,39.4701,122.65c24.35-5.23,48.5499-11.16,72.71-17.22c6.66-1.53,13.1799-3.72,19.9199-4.91
		c2.64,2.47,2.51,6.71,3.4501,10.01c0.79,2.32-1.86,2.8-3.46,3.24c-29.92,7.07-59.89,14-90.05,19.98
		c8.4399,41.97,13.28,84.67,14.04,127.4901c29.37-0.78,58.75-0.92,88.11-1.7401c3.03-0.05,6.0699-0.29,9.12-0.0099
		c1.25-0.04,2.0599,1.17,1.97,2.35c0.14,2.91,0.29,5.87-0.05,8.78c-0.35,1.78-2.73,1.39-4.0299,1.57
		c-31.67,0.01-63.3401,0.19-95.01,0.14c-0.0701,42.69-3.9401,85.39-11.78,127.36c25.73,4.64,51.35,9.9,76.92,15.34
		c5.49,1.31,11.13,2.09,16.5399,3.76c2.03,0.64,0.7201,3.03,0.6901,4.53c-0.6801,2.46-0.75,5.26-2.3201,7.35
		c-4.13,0.3-8.0699-1.51-12.0699-2.22c-27.2-6.42-54.52-12.23-81.86-17.96c-8.5801,42.2-21.2101,83.54-37.36,123.45
		c21.73,8.7401,43.1599,18.23,64.37,28.18c5.5299,2.92,11.6799,4.83,16.77,8.4901c-0.41,4.05-3.3301,7.49-5.03,11.15
		c-3.0701-0.76-5.8201-2.32-8.59-3.75c-23.66-11.89-47.7301-22.94-72.02-33.46c-17.1801,40.14-38.24,78.58-62.5801,114.8099
		c16.91,11.37,33.3301,23.4501,49.3301,36.0701c3.97,3.36,8.38,6.25,12,10.01c-1.23,4.0599-5,6.98-7.9301,9.9399
		c-19.4399-16.2-39.2999-31.9399-60.08-46.39c-25.6801,36.53-54.75,70.74-87.0801,101.5601c14.05,14.5,27.0801,29.97,39.28,46.0599
		c-3.02,3.12-6.63,5.5801-10.3199,7.8201c-11.88-15.73-24.1901-31.16-37.63-45.6c-33.8101,31.3899-70.79,59.35-110.15,83.4099
		c6.9399,11.16,13.1,22.87,18.12,35.02l-0.29,0.92c-3.51,1.72-7.11,3.6699-10.99,4.27c-2.33-3.51-3.36-7.77-5.37-11.4801
		c-3.58-7.72-7.6-15.23-11.83-22.61c-41.0701,24.2101-84.77,43.87-129.92,59.14c1.63,5.17,2.8,10.4601,4.11,15.72
		c-4.0599,1.75-8.58,1.6901-12.87,2.37c-0.77-4.84-1.87-9.61-3.34-14.2699c-21.58,6.76-43.47,12.59-65.61,17.23
		c-7.08,1.03-13.92,3.5499-21.14,3.41c9.34-1.05,18.32-3.9701,27.49-5.9401c19.74-4.83,39.23-10.6,58.46-17.14
		c-3.0499-8.9199-7.4399-17.37-12.95-25.01c-17.69,12.7001-35.82,24.8-54.49,36.02c-5.47,3.11-10.73,6.63-16.43,9.3101
		c23.75-14.9,47.27-30.2201,69.48-47.3501c-5.4801-7.1599-12.0001-13.46-19.11-18.97c-16.65,21.6-33.11,43.4501-51.6,63.52
		c16.97-21.28,33.9901-42.5601,49.5-64.9399c-7.17-5.1101-15.13-9-23.33-12.13c-9.17,25.5599-18.41,51.11-28.95,76.1399
		c8.87-25.61,18.42-51.0099,26.77-76.8099c-8.25-2.71-16.85-4.15-25.5-4.73c-1.51,23.8099-1.91,47.6799-3.54,71.49
		c-0.08,3.75,0.03,7.52-0.36,11.28c-0.68-12.5701,0.27-25.14,0.5-37.7101c-0.02-15.0699,1.01-30.13,0.86-45.2
		c-8.62,0.17-17.29,0.84-25.64,3.1c6.85,26.62,14.27,53.09,21.65,79.5701c-9.03-26-16.28-52.6201-23.92-79.0701
		c-8.41,2.49-16.49,5.96-24.03,10.4301c13.8,23.1799,29.16,45.36,44.24,67.71c-16.6-21.25-31.53-43.78-46.2-66.39
		c-7.63,4.76-14.38,10.8201-20.42,17.47c21.16,18.8301,43.77,35.9501,66.5,52.8c-23.77-15.48-46.27-32.86-68.09-50.97
		c-5.93,7.1699-10.74,15.1899-14.61,23.64c20.68,9.2,42.06,16.7599,63.59,23.74c5.4,2.0399,11.17,2.99,16.42,5.45
		c-27.52-7.12-54.54-16.13-80.94-26.67c-3.53,9.01-5.8,18.52-6.52,28.1801c1.51,0.1899,3.04,0.4301,4.57,0.62h-38
		c-44.04-4.62-87.77-12.79-130.15-25.71c-2.73,8.4099-4.61,17.0699-6.46,25.71h-14.25c2.19-10,4.77-19.91,7.8-29.6801
		c-49.7-15.8999-97.55-37.6-142.3-64.4299c-17.74,29.73-32.3,61.33-43.44,94.11h-17.07c12.19-35.5601,28.83-69.53,48.62-101.47
		c-45.04-28.05-86.66-61.5701-123.88-99.38c-46.68,46.1799-87.84,98.02-121.56,154.39c29.32,17.4199,59.7,33.08,91.07,46.46h-44.47
		c-19.4-8.8101-38.3-18.67-56.88-29.0601c-5.49,9.5801-10.44,19.4601-15.88,29.0601H236.9c6.99-13.14,14.24-26.14,22-38.84
		c-65.33-39.23-124.68-88.52-175.02-145.75C55.52,1197.4,28.39,1223.75,2.2,1251c-0.76,0.8199-1.5,1.6899-2.2,2.59v-33.6
		c1.56-3.52,5.14-5.61,7.7-8.35c20.3-18.88,40.86-37.49,62.31-55.0701c-25.75-31.4299-49.69-64.48-70.01-99.7v-61.09
		c4.46,10.93,10.4,21.21,15.79,31.7c21.3,39.62,46.38,77.14,74.38,112.3301c63.94-51.02,132.13-96.77,204-135.8801
		c-26.08-47.9-46.52-98.89-60.5-151.61C154.78,873.35,76.75,897.66,0,925.53v-21.14c75.83-24.83,152.58-46.88,230.11-65.74
		c-12.82-53.28-19.7-108.08-19.34-162.91c-70.26-0.28-140.52-0.38-210.77-0.4v-19.17c70.28,1.86,140.56,3.72,210.85,5.25
		c1.19-54.88,9.02-109.65,23.39-162.64C155.1,477.51,76.89,452.73,0,424.39V402.5c56.26,22.48,113.24,43.2,170.92,61.73
		c22.3,7.25,44.77,13.93,67.2,20.73c15.19-52.28,36.78-102.69,64-149.84c-69.91-40.25-136.04-87.05-197.34-139.48
		C65.77,241.69,31.97,292.21,5.1,346.29c-1.75,3.63-3.77,7.16-5.1,10.99v-60.24c0.22-0.95,0.54-1.87,0.97-2.74
		c24.5-41,52.62-79.91,84.59-115.42C59.06,155.31,33.5,130.67,9.02,105C6,101.77,2.67,98.8,0,95.26V57.98
		c6.32,8.5,13.71,16.18,20.59,24.24c23.7,26.62,48.4,52.38,74.32,76.86c1.63,1.23,2.86,3.65,4.98,3.85
		c3.73-3.32,6.9-7.22,10.45-10.74c49.48-50.37,106.03-93.84,167.65-128.34C273.59,15.96,269.34,7.98,265.09,0 M1047.27,20.06
		c-2.9401,8.8-7.38,17.03-12.62,24.67c36.28,25.82,70.01,55.13,101.41,86.67c15.7999-15.23,29.2-32.83,40.61-51.55
		C1135.86,55.33,1092.22,35.67,1047.27,20.06 M860.22,31.33c-39.17,17.44-76.7599,38.45-112.1,62.72
		c12.34,17.64,26.71,33.82,42.89,48.04c28.85-33.14,60.27-64.11,94.21-92.03c-5.73-7.07-10.43-14.89-14.21-23.15
		C867.25,27.8,863.82,29.9,860.22,31.33 M562.27,91.69c0.03,0.16,0.1,0.49,0.13,0.65c19.29,32.13,42.6,61.84,69.0699,88.36
		c31.63-31.64,66.26-60.31,103.4-85.25c-13.99-20.78-25.13-43.48-32.85-67.32C653.26,44.03,606.32,65.42,562.27,91.69
		 M118.15,180.76c6.34,5.37,12.39,11.08,18.75,16.43c53.75,46.74,111.64,88.66,172.5,125.65c27.86-46.25,61.4-89.05,99.36-127.43
		c-46.45-46.04-87.21-97.91-120.55-154.18C224.98,78.89,167.35,126.03,118.15,180.76 M1014.29,65.44
		c25.31,33.67,48.31,69.08,69.1,105.72c17.63-9.85,33.98-21.99,48.66-35.85c-30.53-32.13-63.4701-62.04-98.92-88.67
		C1027.79,53.78,1021.29,59.96,1014.29,65.44 M886.61,51.77c-32.71,28.97-63.45,60.18-91.41,93.77
		c15.23,12.74,32.06,23.46,49.74,32.47c18.55-37.44,39.17-73.87,61.83-108.98C899.25,64.28,892.7,58.21,886.61,51.77 M989.44,78.69
		c13.66,38.33,25.98,77.14,36.81,116.36c18.29-5.22,36-12.37,52.77-21.34c-20.11-36.88-42.35-72.57-66.46-106.95
		C1005.3,71.55,997.61,75.68,989.44,78.69 M908.71,70.24c-21.59,35.56-41.41,72.21-59.11,109.86
		c16.94,8.08,34.84,14.17,53.1801,18.17c8.74-39.57,18.83-78.83,29.47-117.91C923.91,78.33,916.06,74.6,908.71,70.24
		 M1484.66,216.81c34.6699,37.83,65.11,79.6,90.2799,124.32c65.2301-36.92,127.2001-79.64,184.7301-127.67
		c-0.2301-1.68-2.1801-2.67-3.0801-4.05c-43.46-51.58-94.3199-96.91-150.4399-134.33
		C1571.6899,127.08,1530.49,174.52,1484.66,216.81 M962.2,84.04c1.78,40.01,3.55,80.01,4.89,120.04
		c18.3799-0.51,36.75-3.15,54.5099-7.94c-10.36-39.24-21.68-78.22-34.28-116.79C979.19,82.01,970.71,83.45,962.2,84.04
		 M934.54,81.15c-9.63,39.28-19.15,78.61-26.66,118.35c17.85,3.38,36.01,5.09,54.19,4.78c-0.14-6.76-0.02-13.53-0.11-20.3
		c-1.03-33.3-1.38-66.62-2.07-99.92C951.35,84.26,942.84,83.11,934.54,81.15 M1186.97,85.91c-12.02,19.55-26.52,37.62-43.22,53.38
		c27.8199,29.65,53.75,61.11,76.89,94.56c27.25-19.04,52.5499-40.84,75.25-65.13C1262.4,137.65,1225.87,109.87,1186.97,85.91
		 M428.91,196.32c6.6,6.05,12.81,12.53,19.53,18.47c29.38,27.28,61.14,51.94,94.44,74.25c23.65-35.81,50.79-69.27,80.48-100.23
		c-27.5-27.1-52.28-57.09-72.61-89.95C506.57,126.5,465.47,159.19,428.91,196.32 M638.05,187.26c23.38,22,48.62,42.24,76.12,58.82
		c21.03-33.47,44.12-65.73,69.9-95.72c-17.04-14.69-32.53-31.24-45.5-49.64C702.4,126.26,668.79,155.4,638.05,187.26
		 M1088.48,180.41c6.72,11.52,12.75,23.43,18.8201,35.3c10.49,21,20.5499,42.24,29.46,63.96c27.03-11.15,52.83-25.2,77.1899-41.35
		c-22.5-33.38-47.2799-65.25-74.5-94.92C1124.03,157.76,1106.52,169.65,1088.48,180.41 M788.36,153.84
		c-24.66,30.63-47.53,62.78-67.48,96.68c24.6,14.29,50.22,26.95,77,36.65c12.39-33.47,26.32-66.38,41.87-98.5
		c0.84-1.19,0.6-2-0.69-2.43C820.99,177.43,804.01,166.44,788.36,153.84 M1273.1899,206.26
		c-14.87,12.99-30.6399,24.89-46.9199,36.04c21.16,31.14,39.85,63.97,56.09,97.93c37.74-17.95,73.88-39.24,108.0601-63.29
		c-25.37-36.05-54.3501-69.5-85.9601-100.21C1294.22,186.76,1284.12,196.97,1273.1899,206.26 M1028.88,204.35
		c9.14,33.59,17.5,67.41,24.51,101.51c26.1899-5.56,51.85-13.46,76.74-23.3c-13.71-34.07-29.16-67.44-46.42-99.85
		C1066.27,191.85,1047.89,199.23,1028.88,204.35 M804.71,289.73c24.9,8.54,50.43,15.5,76.47,19.53
		c5.78-33.94,12.05-67.82,19.68-101.39c-19.06-4.35-37.82-10.29-55.5-18.69C830.29,222.05,816.45,255.53,804.71,289.73
		 M630.39,195.33c-28.69,31.06-54.94,64.45-77.58,100.18c15.81,9.89,31.81,19.51,48.26,28.34c18.74,10.24,38.1,19.3,57.55,28.11
		c14.66-33.52,31.44-66.11,50.38-97.41C680.75,237.76,654.5,217.64,630.39,195.33 M324.45,331.76
		c49.78,29.12,101.56,54.76,154.81,76.89c15.92-38.45,35.19-75.52,57.72-110.51c-41.99-26.86-81.44-57.75-117.39-92.28
		C383.02,243.84,351.26,286.37,324.45,331.76 M967.36,213.84c1.1,23.7,1.51,47.42,2.56,71.13c0.17,10.28,0.27,20.58,0.91,30.84
		c25.52-1.12,51.02-3.59,76.07-8.7c-6.98-33.92-14.34-67.77-22.9-101.33C1005.42,210.27,986.45,213.01,967.36,213.84 M905.78,208.9
		c-6.5601,33.8-12.65,67.7-17.76,101.76c25.14,3.46,50.49,5.58,75.88,5.16c-0.7401-33.95-0.82-67.91-1.61-101.86
		C943.34,214.24,924.4,212.38,905.78,208.9 M1581.58,353.06c24.4801,45.21,43.79,93.25,57.36,142.85
		c81.2401-22.53,161.4701-48.77,240.16-79.05c-2.73-9.28-7.0599-18.01-10.63-26.99c-24.9199-57.91-57.6599-112.37-96.5699-161.96
		C1712.12,274.87,1648.49,316.96,1581.58,353.06 M1140.3199,288.19C1152.9,318.87,1164.29,350.12,1173.42,382
		c3.6799-0.34,7.1-1.89,10.64-2.89c30.49-9.51,60.23-21.28,89.2999-34.48c-15.4-33.93-33.8099-66.42-53.8199-97.83
		C1194.39,262.83,1167.9301,276.86,1140.3199,288.19 M715.78,258.95c-18.14,31.15-34.34,63.46-48.1801,96.75
		c31.9301,13.25,64.71,24.44,98.12,33.34c8.3-31.5,17.83-62.73,29.19-93.26c-17.99-6.74-35.7599-14.14-52.9-22.84
		C733.09,268.62,724.54,263.5,715.78,258.95 M1396.76,286.21c-34.8201,23.95-71.8,44.69-110.05,62.61
		c5.15,12.39,10.9701,24.6,15.8401,37.15c8.21,20.61,15.7999,41.49,22.13,62.76c45.71-14.06,90.6499-30.65,134.49-49.76
		C1441.89,359.57,1421.12,321.67,1396.76,286.21 M1055.22,314.14c6.15,30.21,11.87,60.54,16.24,91.06
		c31.7001-4.5,63.01-11.66,93.8101-20.4c-9.09-31.81-19.7001-63.19-31.9-93.93C1108.1,300.96,1081.87,308.65,1055.22,314.14
		 M773.94,391.12c30.57,7.7,61.62,13.63,92.95,17.26c3.43-30.35,8-60.58,12.88-90.73c-26.48-4.25-52.69-10.72-77.97-19.71
		C791.06,328.54,782.01,359.72,773.94,391.12 M547.03,304.53c-21.54,34.7-40,71.28-55.23,109.17
		c42.32,16.91,85.52,31.62,129.43,43.79c9.22-33.07,20.57-65.55,33.87-97.2C617.67,344.61,581.54,325.86,547.03,304.53 M971.02,324
		c-0.13,13.28,0.67,26.55,0.98,39.82c-0.21,16.72,1.13,33.42,1.01,50.15c30.32-0.86,60.59-3.17,90.64-7.4
		c-4.36-30.42-9.55-60.72-15.13-90.94C1022.92,320.27,997.03,323.26,971.02,324 M875.05,409.52c29.88,3.02,59.89,4.87,89.93,4.47
		c0.09-29.99-1.14-59.96-0.99-89.94c-25.83,0.45-51.67-1.45-77.23-5.18C882.3,349.01,878.1,379.22,875.05,409.52 M317.46,343.92
		c-25.65,46.28-46.19,95.4-60.63,146.32c60.69,17.16,121.97,32.34,183.79,44.81c7.82-39.64,19.75-78.41,34.39-116.04l-0.35-0.52
		C420.65,397.21,368.19,372.11,317.46,343.92 M1176.01,390.34c8.67,29.16,15.76,58.79,21.64,88.63c0.2,1.24,0.97,1.58,2.3099,1.02
		c38.4301-7.62,76.53-16.93,114.0901-28.1c-10.15-33.71-22.29-66.82-36.78-98.9C1244.52,367.94,1210.5601,380.26,1176.01,390.34
		 M664.12,363.98c-12.79,31.42-23.67,63.61-32.47,96.37c37.29,10.03,75.02,18.55,113.11,24.84c4.97-29.6,11.2-59.03,18.92-88.04
		c-10.19-3.13-20.6-5.6-30.78-8.8C709.62,381.27,686.59,373.32,664.12,363.98 M1072.86,412.97c3.83,28,7.84,56.02,10.24,84.17
		c35.29-3.16,70.39-8.53,105.24-14.94c-5.39-30.11-12.72-59.84-20.6-89.38C1136.53,401.32,1104.87,408.25,1072.86,412.97
		 M772.04,398.95c-7.23,29.04-13.1,58.41-18.11,87.91c34.35,5.77,68.97,9.75,103.64,12.8c2.26-27.9,4.76-55.8,8.44-83.55
		C834.4,412.18,802.93,406.75,772.04,398.95 M1327.36,457.61c9.75,32.76,17.08,66.22,22.36,99.98
		c50.79-7.44,101.3201-17.41,151.63-27.78c-8.74-41.25-21.52-81.66-37.85-120.53C1419.14,428.08,1373.5699,444,1327.36,457.61
		 M973.11,421.27c0.73,27.42,0.99,54.83,1.31,82.25c14.18-0.52,28.38-0.31,42.53-1.44c7.9,0.1,15.73-1.05,23.6299-1.21
		c11.26-0.93,22.5701-1.4,33.78-2.87c-2.47-28.07-6-56.04-9.59-83.98C1034.4301,418.41,1003.77,420.72,973.11,421.27 M874.13,416.93
		c-3.07,27.7-5.59,55.47-7.56,83.27c33,2.52,66.1,3.52,99.2,3.42c-0.12-27.41-0.7-54.81-0.83-82.22
		C934.62,421.71,904.27,420.27,874.13,416.93 M487.87,423.76c-14.19,37.06-25.28,75.31-33.06,114.23
		c47.84,9.7,96.02,17.68,144.33,24.69c4.85-32.47,11.04-64.8,19.8-96.46C574.55,454.35,530.83,440.04,487.87,423.76 M1199.51,488.15
		c5.23,28.77,9.47,57.73,12.4,86.84c42.0399-3.7,83.97-9.36,125.76-15.43l0.21-0.55c-5.04-33.13-12.24-65.91-21.1801-98.19
		C1278.02,471.46,1239.02,481.12,1199.51,488.15 M629.26,468.91c-5.46,22.23-10.52,44.57-14.31,67.16
		c-1.46,9.33-3.38,18.68-4.07,28.07c40.45,5.82,81.15,9.96,121.84,13.86c2.16-28.43,6-56.73,10.59-84.87
		C704.99,486.59,666.89,478.68,629.26,468.91 M1083.97,504.62c1.7001,17.76,3.3,35.54,4.3,53.36c1.03,8.8,0.64,17.74,1.97,26.52
		c37.23-2.33,74.52-4.47,111.61-8.49c-3.21-28.77-6.73-57.55-12.0399-86.03C1154.77,496.44,1119.42,501.16,1083.97,504.62
		 M752.61,494.69c-4.13,27.96-7.86,56.01-10.02,84.2c36.54,2.72,73.1,5.3,109.72,6.77c1.14-26.2599,2.57-52.5099,4.7-78.7
		c-3.02-0.33-6.02-0.78-9.05-0.91C816.05,503.58,784.28,499.36,752.61,494.69 M231.07,661.87c65,1.35,130.01,2.57,195.02,3.6
		c0.76-40.2,4.76-80.36,12.29-119.87c-62.26-11.65-124.03-25.86-185.36-41.71C239.74,555.49,232.11,608.58,231.07,661.87
		 M974.54,510.64c0.66,25.74,0.4,51.48,0.67,77.23c35.12-0.52,70.2399-1.45,105.34-2.88c-1.3501-26.56-2.9701-53.1-5.5601-79.56
		C1041.6,508.54,1008.07,510.06,974.54,510.64 M866.07,507.5c-2,26.05-3.21,52.15-4.33,78.24c18.69,1.32,37.45,1.15,56.18,1.71
		c16.02,0.46,32.04,0.52,48.07,0.51c0.12-25.72-0.21-51.45-0.04-77.17C932.62,510.89,899.31,509.75,866.07,507.5 M1350.9301,566.75
		c5.09,33.22,7.33,66.85,7.8899,100.44c27.41-0.23,54.8101-0.44,82.2101-1.1c25.36-0.02,50.71-0.78,76.0599-1.11
		c-0.6599-41.77-5.34-83.42-13.2899-124.43C1453.09,550.62,1402.11,559.36,1350.9301,566.75 M452.73,548.41
		c-7.04,38.73-10.98,78.01-11.62,117.3701c24.63,0.16,49.26,0.58,73.89,1.08c25.39,0.15,50.78,0.37,76.17,0.93
		c0.65-32.31,2.61-64.6,6.92-96.64C549.43,565.06,501,557.13,452.73,548.41 M1248.11,579.43c-11.83,1.41-23.77,2.06-35.54,3.81
		c2.8401,28.4,3.9501,56.93,4.4301,85.46c43.21-0.64,86.4301-0.67,129.65-1.26c-0.49-33.12-2.97-66.19-7.38-99.02
		C1308.92,572.43,1278.55,576.26,1248.11,579.43 M609.36,572.8c-3.69,31.56-6.17,63.28-6.33,95.06
		c41.72,0.16,83.4399,0.66,125.16,1.12c0.37-27.93,1.48-55.85,3.73-83.69C690.96,582.32,650.14,577.6,609.36,572.8 M1090.25,591.34
		c1.13,25.97,2.08,51.96,1.83,77.96c38.13-0.37,76.26-0.16,114.39-0.53c-0.26-28.32-1.6-56.6-4.01-84.81
		C1165.1,586.9,1127.72,589.89,1090.25,591.34 M738.31,668.89c37.37,0.19,74.74,0.25,112.11,0.6c0.06-16.51,0.52-33.01,0.64-49.52
		c0.17-9.1299,0.97-18.23,0.94-27.36c-36.7-1.53-73.39-3.43-109.99-6.45C739.61,613.67,738.85,641.28,738.31,668.89 M1064.04,592.63
		c-29.5801,1.13-59.17,1.59-88.77,1.87c0.35,25.1,0.21,50.21,0.53,75.31c35.66-0.21,71.33-0.23,107.0001-0.44
		c-0.12-25.8-0.9301-51.59-1.8101-77.37C1075.33,591.87,1069.6801,592.38,1064.04,592.63 M861.45,592.99
		c-0.56,25.53-1.53,51.06-1.33,76.59c35.33,0.01,70.67,0.13,106,0.2c0.02-25.08,0.11-50.1801-0.23-75.26
		C931.07,594.71,896.25,594.01,861.45,592.99 M230.87,675.67c-0.09,53.24,6.29,106.41,18.3,158.26
		c61.98-14.42,124.28-27.56,187.04-38.11c-6.74-39.58-10.13-79.71-10.25-119.86C360.93,676,295.9,675.79,230.87,675.67
		 M441.03,676.02c0.02,39.25,3.31,78.48,9.69,117.2c48.57-7.96,97.28-15.2599,146.19-20.72c-3.8799-32.01-5.6299-64.25-5.74-96.49
		C541.12,676.04,491.08,675.95,441.03,676.02 M603.01,676.03c-0.28,31.75,1.97,63.46,5.23,95.02c40.91-4.66,81.9-8.66,122.98-11.54
		c-1.86-27.79-3-55.63-3.06-83.48C686.44,676.16,644.73,676.02,603.01,676.03 M738.33,676.13c0.11,27.59,1.17,55.15,2.89,82.68
		c6.5601-0.89,13.19-0.77,19.77-1.5c30.27-1.66,60.52-3.59,90.83-4.34c-1.16-25.64-1.14-51.31-1.45-76.96
		C813.02,676.27,775.67,675.96,738.33,676.13 M860.02,676.1c-0.17,25.53,0.69,51.05,1.21,76.57c9.92-0.55,19.84-0.73,29.77-0.77
		c25.02-0.87,50.05-0.98,75.09-0.91c-0.04-24.97,0.1-49.95,0.08-74.92C930.79,676.18,895.4,676.1,860.02,676.1 M975.72,676.07
		c-0.17,24.97,0.01,49.94-0.47,74.9c21.95-0.04,43.87,1.02,65.8199,1.13c13.2201,0.83,26.51,0.54,39.7201,1.59
		c0.87-3.48,0.5299-7.11,0.85-10.65c0.58-22.31,1.21-44.62,1.14-66.93C1047.09,676.08,1011.41,676.18,975.72,676.07 M1092.17,676.12
		c0.12,25.97-0.4401,51.92-1.55,77.86c37.51,1.54,75,3.86,112.42,6.94c2.4199-28.22,3.36-56.56,3.4199-84.89
		C1168.36,676.16,1130.27,676.05,1092.17,676.12 M1217.03,676.03c-0.0701,28.68-1.38,57.35-3.61,85.9399
		c16.61,0.82,33.1599,2.8,49.72,4.3101c25.86,2.61,51.6899,5.47,77.48,8.74c3.84-32.84,6.01-65.87,6.1-98.95
		C1303.49,675.95,1260.26,676.15,1217.03,676.03 M1352.35,776.62c6.59,0.62,13.15,1.65,19.72,2.52
		c44.7201,6.16,89.3501,13.04,133.7301,21.33c2.6499-11.97,4.13-24.2,5.8099-36.34c3.76-29.23,5.51-58.69,5.59-88.15
		c-52.7699,0.05-105.5399-0.02-158.3199,0.06C1358.83,709.65,1356.8101,743.3,1352.35,776.62 M861.44,759.25
		c0.9,26.21,2.45,52.38,3.91,78.56c33.42-2.58,66.98-3.24,100.5-3.09c0.15-25.68,0.15-51.37,0.15-77.05
		C931.14,757.62,896.28,758.18,861.44,759.25 M975.2,757.86c-0.16,25.64-0.02,51.29-0.54,76.92
		c33.78,0.22,67.5101,2.04,101.1501,4.86c2.22-26.39,3.8999-52.83,5.1399-79.29C1045.72,759,1010.47,757.68,975.2,757.86
		 M741.89,766.08c2.02,28.09,5.51,56.06,9.39,83.96c34.8799-5.1,69.91-9.2,105.08-11.69c-2.03-26.2-3.11-52.46-4.55-78.7
		C815.14,761.17,778.47,763.01,741.89,766.08 M1090.17,760.87c-0.9,26.6-3.24,53.13-5.29,79.65c35.73,3.03,71.25,8.08,106.63,13.81
		c4.58-28.6,8.61-57.31,10.9399-86.19C1165.05,765.38,1127.66,762.32,1090.17,760.87 M649.1,774.67
		c-13.2599,1.29-26.46,3.34-39.73,4.44c3.95,32.2,9.79,64.18,17.68,95.65c37.92-9.45,76.29-17.24,114.93-23.1
		c-4.44-28.12-7.87-56.4-10.06-84.78C704.26,768.85,676.67,771.68,649.1,774.67 M1200.97,856.01
		c39.77,7.26,79.27,16.04,118.3301,26.48c8.75-32.5,15.58-65.55,19.98-98.93c-18.15-2.31-36.28-4.78-54.4601-6.81
		c-23.9299-3.06-48.0099-4.95-71.97-7.72C1209.89,798.14,1206.41,827.24,1200.97,856.01 M452.57,803.18
		c6.86,39.13,17.75,77.46,30.9,114.91c4.79-1.2,9.31-3.25,14.01-4.77c39.06-13.76,78.76-25.72,118.87-36.02
		c-8.1-31.72-14.17-63.96-18.45-96.42C549.23,786.77,500.86,794.88,452.57,803.18 M1351.14,785.31
		c-4.54,33.93-11.92,67.43-20.83,100.47c4.2799,0.8199,8.4199,2.23,12.62,3.41c42.5399,12.22,84.3999,26.73,125.61,42.86
		c15.1899-39.2,27.2999-79.61,35.49-120.87C1453.33,801.06,1402.33,792.49,1351.14,785.31 M252.52,847.5
		c4.57,16.3,9.15,32.62,14.69,48.63c11.6,34.16,25.99,67.37,42.82,99.28c41.92-22.22,85.02-42.22,129.01-60
		c10.51-4.47,21.4-8.08,31.83-12.7c-1.92-4.14-3.29-8.48-4.83-12.75c-11.98-33.88-21.3-68.69-27.96-104
		C375.83,817.93,313.83,831.35,252.52,847.5 M893.97,843.22c-9.34,0.72-18.7,0.79-28,1.8701c1.89,27.49,4.4,54.94,7.11,82.37
		c30.52-3.12,61.22-4.66,91.91-4.46c0.31-27.03,0.58-54.06,0.95-81.09c-9.98-0.12-19.96,0.11-29.93,0.09
		C921.98,841.89,907.99,842.92,893.97,843.22 M973.37,923.09c4.86,0.25,9.74,0.37,14.61,0.6c26.07,0.68,52.02,3.32,77.89,6.44
		c3.6901-27.61,6.83-55.31,9.22-83.06c-33.4099-3.13-66.95-4.92-100.52-5.07C974.1,869.03,973.97,896.06,973.37,923.09
		 M1588.8,986.63c66.3999,33.88,129.99,73.26,190.0599,117.39c2,1.2999,3.6901,3.27,6.04,3.97
		c41.84-56.05,75.34-118.31,99.14-184.08c0.8099-3,2.61-5.74,2.6799-8.9c-37.78-12.82-75.65-25.46-113.88-36.9
		c-42.99-13.1-86.37-24.83-129.9099-35.96C1630.49,892.18,1612.04,940.64,1588.8,986.63 M752.75,857.75
		c4.29,29.35,10.33,58.44,17.05,87.33c31.3-7.69,63.22-12.72,95.1-16.94c-3.36-27.39-5.81-54.89-7.97-82.4
		C822.04,848.06,787.32,852.53,752.75,857.75 M1084.09,847.94c-2.84,27.84-5.84,55.69-10.1599,83.35
		c32.3999,4.78,64.5499,11.31,96.1699,19.84c7.97-29.31,14.48-59,19.9501-88.87C1154.92,856.24,1119.6,850.97,1084.09,847.94
		 M629.06,883.34c8.59,32.52,18.77,64.62,31.11,95.92c32.95-12.8,66.66-23.7,101-32.09c-6.85-29.06-13.28-58.26-17.89-87.77
		C704.85,865.53,666.76,873.72,629.06,883.34 M1199.23,865.87c-5.37,29.6-12.59,58.83-20.4,87.87
		c12.2301,2.97,24.17,7.02,36.14,10.89c22.61,7.49,44.91,15.98,66.76,25.46c13.87-32.07,25.53-65.08,35.17-98.67
		c-38.5701-10.76-77.6-19.89-116.9401-27.38C1199.78,864.5,1199.41,865.41,1199.23,865.87 M487.55,928.27
		c14.28,38.06,32.29,74.67,52.94,109.66c35.36-21.1801,72.43-39.4601,110.58-55.04c-12.93-31.52-23.73-63.93-32.4-96.87
		C574.29,897.89,530.52,912.03,487.55,928.27 M1327.61,894.64c-9.86,33.94-21.98,67.29-36.64,99.46
		c39.23,17.69,77.26,38.17,113.17,61.9301c23.34-35.9301,43.71-73.88,59.88-113.57C1419.37,924.33,1373.96,907.92,1327.61,894.64
		 M873.94,935.14c3.18,29.92,7.25,59.74,11.22,89.5599c26.1-3.6,52.45-5.6699,78.82-4.98c0.16-29.66,1.2-59.31,1.02-88.97
		C934.58,930.5,904.16,931.85,873.94,935.14 M973.04,930.95c0.18,16.36-0.63,32.69-1.03,49.04c0.23,13.27-0.81,26.52-0.91,39.79
		c26.54,0.45,53.01,3.4399,79.11,8.27c5.6801-29.85,10.2201-59.9,14.75-89.9401C1034.52,933.77,1003.79,931.26,973.04,930.95
		 M316.78,1007.86c25.51,45.9501,56.52,88.77,91.71,127.79c37.63-34.14,78.39-64.8101,121.6-91.53
		c-21.67-35.25-40.23-72.4-55.38-110.89C420.57,954.75,367.66,979.46,316.78,1007.86 M771.75,953.07
		c7.51,31.1,16.6,61.8,26.51,92.21c26.14-8.3101,52.78-15.2101,79.9-19.4401c-4.61-29.89-9.08-59.83-12.3199-89.9
		C834.21,940,802.71,945.37,771.75,953.07 M1073.03,938.99c-4.88,30.15-9.42,60.43-16.0801,90.23
		c27.3101,5.7001,54.2101,13.39,80.3201,23.23c11.64-30.5599,21.77-61.6699,30.6899-93.1199
		C1136.79,950.51,1104.99,944.14,1073.03,938.99 M664.28,987.59c-0.09,0.27-0.27,0.81-0.36,1.09c13.4,32.91,28.81,65.03,46.4,95.92
		c25.8-14.73,53.04-26.87,81.02-36.83c-10.6-30.46-20.13-61.33-27.92-92.63C729.7,963.73,696.59,974.67,664.28,987.59
		 M1176.23,961.83c-2.14,8.64-5.0699,17.07-7.63,25.6c-7.41,22.82-15.27,45.5099-24.36,67.72c28.23,11.47,55.6,25.14,81.38,41.4299
		c9.13-14.4199,17.6901-29.2,25.84-44.1899c9.5701-17.37,17.9401-35.38,26.51-53.25c-12.98-6.35-26.5399-11.5-39.98-16.79
		C1217.6899,974.71,1197.17,967.48,1176.23,961.83 M546.16,1047.37c22.1801,35.6801,47.41,69.45,75.38,100.8
		c25.2-22.39,52.47-42.49,81.59-59.49c-18.29-31.2001-34.56-63.6001-48.46-96.9901C617.07,1007.24,580.78,1025.98,546.16,1047.37
		 M1582.24,998.75c-24.13,45.13-53.4299,87.5601-87.28,125.95c48.03,42.1001,91.2101,89.75,128.14,141.87
		c25.62-18.59,50.4401-38.36,73.53-60.0399c27.75-25.38,52.91-53.47,76.45-82.77c-12.72-10.6801-26.2799-20.35-39.64-30.22
		C1685.26,1058.58,1634.75,1026.8,1582.24,998.75 M1258.26,1059.16c-7.9401,14.2999-16.6801,28.15-25.34,42
		c29.11,19.1899,56.48,41.11,81.0399,65.88c31.03-31.12,59.0901-65.16,83.89-101.4401c-35.0499-23.9199-72.2899-44.49-110.61-62.67
		C1278.12,1021.94,1268.72,1040.84,1258.26,1059.16 M103.23,1155.63c47.99,56.15,104.17,105.3199,166.52,144.95
		c35.98-56.5199,78.98-108.5599,127.67-154.58c-36.98-39.1801-69.38-82.6899-96.15-129.45
		C231.2,1056.75,164.82,1103.37,103.23,1155.63 M886.68,1033.12c4.73,33.6901,10.79,67.17,17.04,100.6c19.38-3.65,39.1-5.46,58.83-5
		c0.44-33.5699,0.91-67.15,1.45-100.72C938.13,1027.49,912.28,1029.49,886.68,1033.12 M969.04,1088.9
		c0.14,13.33-1.22,26.62-1.12,39.96c19.87,0.36,39.55,3.6901,58.91,7.96c2.61-12.6699,6.04-25.1599,8.7201-37.8199
		c4.7999-20.6899,8.86-41.53,13.1599-62.3101c-25.5699-5.25-51.6799-7.8099-77.7499-8.61
		C970.22,1048.35,970.09,1068.64,969.04,1088.9 M801.24,1054.04c11.81,33.76,24.71,67.1599,39.54,99.72
		c18.39-8.71,38.05-14.33,57.73-19.23c-5.33-23.99-9.82-48.16-14.18-72.3301c-1.44-9.2999-3.61-18.49-4.47-27.85
		C853.14,1038.53,826.8,1045.21,801.24,1054.04 M1055.3101,1037.97c-6.7201,33.65-14.66,67.0701-23.65,100.1801
		c19.7999,5.4,38.9399,13,57.33,22.03c16.9-32.0901,31.47-65.37,45-99C1108.51,1051.1899,1082.1801,1043.21,1055.3101,1037.97
		 M418.01,1145.71c35.75,37.86,76.06,71.3201,119.4,100.15c21.98-33.2,47.8-63.88,76.96-91.01
		c-29.04-31.27-55.18-65.21-78.34-101.03C493.73,1080.36,454.46,1111.6,418.01,1145.71 M715.16,1093.3199
		c19.75,33.62,41.6201,66,65.75,96.64c16.82-13.46,35.35-24.73,54.78-34c-15.42-32.49-29.12-65.7899-41.34-99.61
		C766.96,1066.35,740.29,1078.49,715.16,1093.3199 M1140.9,1063.83c-14,33.8-29.4501,67.03-47.02,99.13
		c19.17,10.49,37.38,22.89,53.5699,37.6001c0.8601-0.8401,1.7201-1.6801,2.54-2.5601c25.61-29.1801,49.12-60.2,70.17-92.83
		C1195.0601,1089.02,1168.48,1075.21,1140.9,1063.83 M629.33,1156.59c29.96,32.3401,62.99,61.8301,98.42,88.04
		c14.03-18.8101,30.22-36.1,48.46-50.88c-24.76-30.62-47.7-62.73-68.02-96.47C680.02,1114.38,653.55,1134.24,629.33,1156.59
		 M1227.01,1109.8101c-22.38,33.5599-47.54,65.24-74.88,94.8899c17.8199,16.28,33.36,35.02,46.4399,55.29
		c38.2101-24.77,74.2301-53,106.89-84.75C1281.67,1150.8,1255.46,1128.64,1227.01,1109.8101 M905.62,1143.12
		c7.5,38.92,16.46,77.54,25.66,116.09c9.52-1.6599,19.11-3.34,28.83-3c0.52-24.4099,0.86-48.8199,1.44-73.22
		c0.72-14.99,0.22-30,0.78-44.99C943.32,1137.6899,924.28,1139.48,905.62,1143.12 M967.55,1138c-1.33,39.47-3.21,78.91-4.68,118.37
		c9.62,0.4301,19.18,2.13,28.35,5.08c12.3101-38.0299,23.22-76.51,33.05-115.25C1005.68,1141.5601,986.65,1139.0699,967.55,1138
		 M852.43,1159.37c-2.39,1.3101-5.59,1.76-7.45,3.63c16.97,37.21,36.1,73.4301,56.96,108.6c8.43-5.08,17.61-8.7899,27.04-11.5499
		c-10.78-38.3501-20.04-77.12-28.56-116.03C884.07,1147.9399,867.89,1152.6899,852.43,1159.37 M1029.14,1147.66
		c-10.47,38.5699-22.21,76.8199-35.46,114.5399c9.27,3.3301,18.17,7.7301,26.3,13.3301c23.53-34.0901,45.09-69.5701,64.3201-106.26
		C1066.75,1160.15,1048.29,1152.64,1029.14,1147.66 M622.37,1163.15c-27.93,26.97-52.51,57.3099-73.44,90.01
		c43.55,27.5299,90.27,50,138.89,67.02c8.68-24.8601,20.82-48.54,36.02-70.05C687.34,1224.47,653.3,1195.3,622.37,1163.15
		 M787.56,1198.12c27.11,33.71,56.91,65.34,89.19,94.14c6.65-7.5,14.44-13.9401,22.91-19.27
		c-21.8199-34.91-41.83-70.96-59.69-108.0599C821.36,1174.03,803.73,1185.15,787.56,1198.12 M1089.12,1171.85
		c-20.2,36.36-42.4399,71.61-66.97,105.2101c8.1899,5.98,15.5499,13.09,21.87,21.0199c34.5499-27.0599,67.04-56.8999,96.34-89.59
		C1124.67,1194.46,1107.54,1182.0601,1089.12,1171.85 M737.25,1251.5601c37.85,26.96,78.36,50.09,120.65,69.33
		c4.43-9.53,10-18.55,16.91-26.48c-32.96-28.37-63.68-59.36-91.72-92.6C765.88,1216.47,750.33,1233.11,737.25,1251.5601
		 M1144.53,1212.73c-30.29,31.98-63.4401,61.26-98.76,87.5801c6.28,8.59,11.34,18.0199,15.1,27.98
		c44.36-16.3101,87.05-37.05,127.35-61.73c-1.97-4.14-4.85-7.76-7.3099-11.5901C1170.22,1239.75,1158.3101,1225.24,1144.53,1212.73
		 M733.46,1256.84c-13.92,20.92-25.37,43.5901-33.04,67.54c48.1,15.87,98.02,26.3,148.46,30.95
		c0.97-10.88,3.63-21.6499,7.96-31.6799C813.66,1305.47,772.25,1283.12,733.46,1256.84z"/>
</g>
</svg>
