<?xml version="1.0" standalone="no"?>
<!DOCTYPE svg PUBLIC "-//W3C//DTD SVG 20010904//EN"
 "http://www.w3.org/TR/2001/REC-SVG-20010904/DTD/svg10.dtd">
<svg version="1.0" xmlns="http://www.w3.org/2000/svg"
 width="1795.000000pt" height="1951.000000pt" viewBox="0 0 1795.000000 1951.000000"
 preserveAspectRatio="xMidYMid meet">
<metadata>
Created by potrace 1.13, written by Peter Selinger 2001-2015
</metadata>
<g transform="translate(0.000000,1951.000000) scale(0.100000,-0.100000)"
fill="#000000" stroke="none">
<path d="M2188 19369 l-98 -49 0 -110 0 -110 -65 0 -65 0 0 -95 0 -95 65 0 65
0 0 -218 c0 -160 4 -231 14 -266 37 -121 139 -179 258 -146 39 11 37 6 95 204
5 18 4 18 -22 -2 -19 -15 -42 -22 -72 -22 -66 0 -73 23 -73 260 l0 190 85 0
85 0 0 95 0 95 -85 0 -85 0 -2 159 -3 159 -97 -49z"/>
<path d="M120 18845 l0 -555 415 0 415 0 0 100 0 100 -315 0 -315 0 0 150 0
150 170 0 170 0 0 105 0 105 -170 0 -170 0 0 100 0 100 305 0 305 0 0 100 0
100 -405 0 -405 0 0 -555z"/>
<path d="M4190 19070 l0 -100 869 0 c569 0 872 3 876 10 3 6 22 10 41 10 l34
0 0 -3407 0 -3408 -172 -172 -173 -173 3250 0 3250 0 315 315 315 315 -3250 0
-3250 0 243 243 242 242 0 3023 0 3022 905 0 905 0 0 -2117 0 -2118 353 353
352 352 3250 0 3250 0 78 78 78 77 -3 -4552 -3 -4553 383 382 382 383 0 4550
0 4550 -83 -83 -82 -82 -3250 0 -3250 0 -342 -342 -343 -343 0 1733 0 1732
865 0 865 0 0 -867 0 -868 123 123 122 122 1470 2 1470 3 50 27 c59 31 94 67
126 128 21 39 24 59 24 155 0 96 -3 116 -24 155 -32 61 -67 97 -126 128 l-50
27 -1155 3 -1154 2 -58 -57 -58 -57 0 487 0 487 486 0 c321 0 483 -3 479 -10
-4 -7 783 -10 2354 -10 l2361 0 0 -178 c0 -98 3 -287 7 -420 l6 -242 -1119 -2
-1119 -3 -50 -27 c-59 -31 -94 -67 -126 -128 -21 -39 -24 -59 -24 -155 0 -96
3 -116 24 -155 32 -61 67 -97 126 -128 l50 -27 1118 -3 1117 -2 0 -148 0 -148
-45 -44 -45 -44 0 -4550 0 -4551 -147 -147 -148 -148 193 0 192 0 0 -900 0
-900 -1092 0 -1093 0 -305 -304 c-233 -233 -356 -346 -520 -480 l-215 -176 -3
4507 -2 4508 172 172 173 173 -3250 0 -3250 0 -315 -315 -315 -315 3250 0
3250 0 -244 -244 -243 -244 7 -4542 8 -4542 221 220 221 219 488 367 488 366
1284 0 1285 0 0 -765 0 -765 -2173 0 -2172 0 -315 -315 -315 -315 2598 0 2597
0 0 8020 0 8020 -6785 0 -6785 0 0 -100z"/>
<path d="M3720 19105 c-19 -9 -42 -23 -52 -32 -17 -15 -18 -15 -18 5 0 21 -4
22 -100 22 l-100 0 0 -405 0 -405 100 0 100 0 0 260 c0 285 6 322 58 357 40
26 132 24 170 -4 28 -20 31 -21 37 -5 15 36 55 156 55 164 0 4 -19 17 -42 29
-56 29 -160 35 -208 14z"/>
<path d="M1439 19097 c-25 -7 -60 -23 -77 -36 l-32 -22 0 30 0 31 -95 0 -95 0
0 -405 0 -405 95 0 95 0 0 264 c0 256 1 264 23 296 60 88 195 92 247 8 19 -31
20 -50 20 -300 l0 -268 101 0 100 0 -3 298 c-3 279 -4 300 -24 343 -29 62 -86
123 -138 149 -55 26 -156 34 -217 17z"/>
<path d="M2832 19093 c-23 -8 -67 -37 -97 -65 -178 -163 -187 -482 -17 -656
71 -73 129 -96 232 -97 99 0 152 20 219 81 l42 37 -62 63 c-62 63 -63 63 -84
45 -33 -31 -65 -43 -111 -43 -76 0 -141 58 -159 140 l-7 32 253 0 252 0 -7 80
c-16 196 -103 339 -233 386 -50 17 -167 16 -221 -3z m191 -182 c16 -9 37 -33
48 -53 35 -68 36 -68 -126 -68 -119 0 -145 3 -145 14 0 47 53 110 104 125 37
11 81 5 119 -18z"/>
<path d="M180 10235 l0 -7895 1080 0 1080 0 0 -605 0 -605 7710 0 7710 0 0
280 0 280 -3317 0 -3318 0 363 363 362 362 0 4550 0 4550 -380 -380 -380 -380
0 -4550 0 -4550 -83 -83 -82 -82 -783 0 -782 0 0 3767 0 3768 -338 -338 -337
-337 -1412 0 -1412 0 -58 -21 c-257 -97 -257 -491 0 -588 58 -21 58 -21 1155
-21 l1097 0 272 272 273 273 0 -3388 0 -3387 -1990 0 -1990 0 0 1397 0 1398
-263 -263 -262 -262 -1823 0 -1822 0 0 765 0 765 2587 0 2588 0 197 197 198
198 0 -1642 0 -1642 22 -58 c29 -77 104 -152 181 -181 83 -32 271 -32 354 0
77 29 152 104 181 181 l22 58 0 2022 0 2022 -263 -263 -262 -262 -2903 0
-2902 0 0 348 0 348 30 29 30 29 0 3440 0 3440 -30 -29 -30 -29 0 97 0 97 98
0 97 0 315 315 315 315 -413 0 -412 0 0 570 0 570 982 0 983 0 -228 -228 -227
-227 0 -3440 0 -3440 -202 -202 -203 -203 1607 0 1607 0 58 21 c257 97 257
491 0 588 l-58 21 -1292 0 -1292 0 268 268 267 267 0 3440 0 3440 222 222 223
223 -1358 0 -1357 0 0 645 0 645 2002 0 2003 0 -303 -303 -302 -302 0 -3440 0
-3440 -157 -157 -158 -158 3250 0 3250 0 315 315 315 315 -3250 0 -3250 0 223
223 222 222 0 3440 0 3440 237 237 238 238 -2453 0 -2452 0 0 -7895z m3680
-7730 l0 -1015 -565 0 -565 0 0 452 0 453 -105 -105 -105 -105 0 278 0 277
-1035 0 -1035 0 0 195 0 195 1508 0 1507 0 195 195 c107 107 196 195 197 195
2 0 3 -457 3 -1015z m-3510 165 c11 -11 20 -27 20 -35 0 -8 -9 -15 -20 -15
-12 0 -20 7 -20 16 0 23 -34 13 -38 -11 -2 -12 13 -41 33 -67 40 -51 55 -111
36 -147 -9 -16 -21 -21 -52 -21 -36 0 -41 4 -54 33 -12 28 -12 32 1 35 8 2 23
-7 33 -19 10 -12 23 -19 29 -15 22 13 12 53 -28 112 -23 33 -40 71 -40 87 0
32 31 67 60 67 11 0 29 -9 40 -20z m1220 0 c11 -11 20 -27 20 -35 0 -8 -9 -15
-20 -15 -12 0 -20 7 -20 16 0 23 -34 13 -38 -11 -2 -12 13 -41 33 -67 40 -51
55 -111 36 -147 -9 -16 -21 -21 -52 -21 -36 0 -41 4 -54 33 -12 28 -12 32 1
35 8 2 23 -7 33 -19 10 -12 23 -19 29 -15 22 13 12 53 -28 112 -23 33 -40 71
-40 87 0 32 31 67 60 67 11 0 29 -9 40 -20z m260 -130 c0 -143 -1 -150 -20
-150 -19 0 -20 7 -20 140 0 122 2 140 18 149 9 6 18 11 20 11 1 0 2 -67 2
-150z m251 70 c5 0 9 -9 9 -20 0 -11 -4 -20 -10 -20 -6 0 -10 -32 -10 -75 0
-43 4 -75 10 -75 6 0 10 -7 10 -15 0 -20 -46 -20 -54 1 -3 9 -6 49 -6 90 0 43
-4 74 -10 74 -5 0 -10 9 -10 20 0 11 5 20 10 20 6 0 10 13 10 30 0 17 7 33 18
39 15 8 17 5 20 -30 2 -21 7 -39 13 -39z m-1011 55 c0 -11 -11 -15 -40 -15
l-40 0 0 -40 c0 -36 3 -40 25 -40 18 0 25 -5 25 -20 0 -15 -7 -20 -25 -20 -24
0 -25 -2 -25 -70 0 -56 -3 -70 -15 -70 -13 0 -15 23 -15 145 l0 145 55 0 c42
0 55 -3 55 -15z m1093 -10 c1 -5 -6 -11 -15 -13 -11 -2 -18 3 -18 13 0 17 30
18 33 0z m-1659 -61 c9 -8 16 -19 16 -24 0 -15 -24 -24 -28 -12 -5 17 -29 15
-36 -4 -9 -23 -7 -97 3 -113 5 -8 16 -11 29 -7 25 8 38 -10 22 -29 -18 -22
-67 -19 -80 4 -17 33 -13 161 7 183 20 22 46 23 67 2z m154 4 c8 -8 12 -47 12
-110 l0 -98 -27 -1 c-65 -3 -73 5 -73 73 0 36 5 50 21 62 12 8 28 12 36 9 11
-4 14 0 11 13 -2 13 -12 19 -30 19 -36 0 -47 14 -24 31 24 17 58 18 74 2z
m150 -1 c8 -6 12 -41 12 -108 0 -81 -3 -99 -15 -99 -12 0 -15 16 -15 85 0 69
-3 85 -15 85 -12 0 -15 -16 -15 -85 0 -78 -2 -85 -20 -85 -19 0 -20 7 -20 110
l0 109 38 -1 c20 0 43 -5 50 -11z m386 -9 c19 -26 22 -148 6 -179 -14 -25 -66
-26 -79 -1 -10 19 -16 76 -13 134 3 63 55 91 86 46z m146 10 c0 -5 0 -14 0
-22 0 -8 -8 -13 -17 -12 -16 1 -18 -10 -21 -86 -3 -80 -5 -88 -22 -88 -19 0
-20 7 -20 110 l0 110 40 -3 c22 -1 40 -5 40 -9z m384 -10 c19 -26 22 -148 6
-179 -14 -25 -66 -26 -79 -1 -10 19 -16 76 -13 134 3 63 55 91 86 46z m186
-69 c0 -68 3 -90 13 -87 8 3 13 33 15 91 2 68 6 87 17 87 12 0 15 -20 15 -109
l0 -109 -42 0 c-24 -1 -46 5 -50 11 -4 7 -8 56 -8 110 0 90 1 97 20 97 19 0
20 -7 20 -91z m260 -19 c0 -103 -1 -110 -20 -110 -19 0 -20 7 -20 110 0 103 1
110 20 110 19 0 20 -7 20 -110z m124 88 c19 -26 22 -148 6 -179 -14 -25 -66
-26 -79 -1 -10 19 -16 76 -13 134 3 63 55 91 86 46z m154 9 c8 -6 12 -41 12
-108 0 -81 -3 -99 -15 -99 -12 0 -15 16 -15 85 0 69 -3 85 -15 85 -12 0 -15
-16 -15 -85 0 -78 -2 -85 -20 -85 -19 0 -20 7 -20 110 l0 109 38 -1 c20 0 43
-5 50 -11z"/>
<path d="M604 2476 c-9 -23 0 -51 16 -51 10 0 16 12 18 33 2 24 -1 32 -13 32
-8 0 -18 -6 -21 -14z"/>
<path d="M1144 2557 c-3 -8 -4 -39 -2 -68 2 -40 7 -54 18 -54 20 0 22 126 3
132 -7 3 -15 -2 -19 -10z"/>
<path d="M1674 2557 c-3 -8 -4 -39 -2 -68 2 -40 7 -54 18 -54 20 0 22 126 3
132 -7 3 -15 -2 -19 -10z"/>
<path d="M2244 2557 c-3 -8 -4 -39 -2 -68 2 -40 7 -54 18 -54 20 0 22 126 3
132 -7 3 -15 -2 -19 -10z"/>
<path d="M16998 2921 c-28 -25 -33 -36 -32 -72 1 -35 8 -48 33 -71 35 -31 68
-35 111 -13 59 31 69 107 21 156 -40 40 -89 40 -133 0z"/>
<path d="M17568 2899 l-98 -49 0 -110 0 -110 -65 0 -65 0 0 -95 0 -95 65 0 65
0 0 -218 c0 -160 4 -231 14 -266 37 -121 139 -179 258 -146 39 11 37 6 95 204
5 18 4 18 -22 -2 -19 -15 -42 -22 -72 -22 -66 0 -73 23 -73 260 l0 190 85 0
85 0 0 95 0 95 -85 0 -85 0 -2 159 -3 159 -97 -49z"/>
<path d="M15090 2375 l0 -555 415 0 415 0 0 100 0 100 -315 0 -315 0 0 150 0
150 170 0 170 0 0 105 0 105 -170 0 -170 0 0 100 0 100 305 0 305 0 0 100 0
100 -405 0 -405 0 0 -555z"/>
<path d="M16119 2613 c5 -10 59 -90 118 -178 l109 -160 -148 -222 c-82 -123
-148 -225 -148 -228 0 -3 49 -5 109 -5 l109 0 87 135 c48 74 91 135 95 135 5
0 48 -61 96 -135 l87 -135 114 0 c89 0 113 3 107 13 -4 6 -72 110 -150 231
l-143 218 38 57 c21 31 72 109 114 174 l76 117 -112 0 -112 0 -55 -85 c-30
-47 -57 -85 -60 -85 -3 0 -29 38 -58 85 l-54 85 -114 0 c-106 0 -114 -1 -105
-17z"/>
<path d="M16960 2225 l0 -405 100 0 100 0 0 405 0 405 -100 0 -100 0 0 -405z"/>
<path d="M140 1955 l0 -245 245 0 245 0 0 245 0 245 -245 0 -245 0 0 -245z
m420 0 l0 -175 -175 0 -175 0 0 175 0 175 175 0 175 0 0 -175z"/>
<path d="M280 1955 l0 -105 105 0 105 0 0 105 0 105 -105 0 -105 0 0 -105z"/>
<path d="M700 2095 l0 -105 105 0 105 0 0 -35 0 -35 -70 0 -70 0 0 -35 c0 -33
-2 -35 -35 -35 l-35 0 0 -140 0 -140 -35 0 c-33 0 -35 2 -35 35 0 33 -2 35
-35 35 -33 0 -35 -2 -35 -35 0 -33 -2 -35 -35 -35 -33 0 -35 2 -35 35 l0 35
-105 0 -105 0 0 -35 c0 -33 2 -35 35 -35 33 0 35 -2 35 -35 l0 -35 105 0 105
0 0 -35 0 -35 -70 0 -70 0 0 -35 c0 -33 -2 -35 -35 -35 -33 0 -35 2 -35 35 0
33 -2 35 -35 35 -33 0 -35 -2 -35 -35 l0 -35 -70 0 -70 0 0 -70 0 -70 35 0
c33 0 35 -2 35 -35 0 -33 -2 -35 -35 -35 -33 0 -35 -2 -35 -35 0 -33 2 -35 35
-35 33 0 35 2 35 35 0 33 2 35 35 35 33 0 35 2 35 35 0 33 2 35 35 35 33 0 35
2 35 35 0 33 2 35 35 35 33 0 35 -2 35 -35 l0 -35 70 0 70 0 0 -35 0 -35 70 0
70 0 0 -35 0 -35 -70 0 -70 0 0 -35 0 -35 70 0 70 0 0 35 c0 33 2 35 35 35 33
0 35 2 35 35 0 33 -2 35 -35 35 -33 0 -35 2 -35 35 0 33 2 35 35 35 33 0 35 2
35 35 l0 35 70 0 70 0 0 35 c0 33 2 35 35 35 33 0 35 -2 35 -35 0 -33 2 -35
35 -35 33 0 35 -2 35 -35 0 -33 -2 -35 -35 -35 -33 0 -35 -2 -35 -35 0 -33 -2
-35 -35 -35 -33 0 -35 -2 -35 -35 0 -33 -2 -35 -35 -35 -33 0 -35 -2 -35 -35
0 -33 -2 -35 -35 -35 -33 0 -35 -2 -35 -35 l0 -35 -105 0 -105 0 0 -35 0 -35
105 0 105 0 0 35 c0 33 2 35 35 35 33 0 35 2 35 35 0 33 2 35 35 35 33 0 35 2
35 35 0 33 2 35 35 35 l35 0 0 -70 0 -70 35 0 c33 0 35 -2 35 -35 0 -33 -2
-35 -35 -35 -33 0 -35 -2 -35 -35 0 -33 -2 -35 -35 -35 -33 0 -35 2 -35 35 0
33 -2 35 -35 35 l-35 0 0 -70 0 -70 70 0 70 0 0 -110 0 -110 -35 0 -35 0 0 75
0 75 -35 0 -35 0 0 -75 0 -75 35 0 c33 0 35 -2 35 -35 0 -33 -2 -35 -35 -35
-33 0 -35 -2 -35 -35 0 -33 -2 -35 -35 -35 l-35 0 0 70 0 70 -35 0 -35 0 0
-105 0 -105 35 0 35 0 0 -70 0 -70 175 0 175 0 0 35 0 35 70 0 70 0 0 -35 0
-35 70 0 70 0 0 35 c0 33 2 35 35 35 33 0 35 2 35 35 0 33 2 35 35 35 33 0 35
2 35 35 0 33 2 35 35 35 33 0 35 -2 35 -35 l0 -35 75 0 75 0 0 35 c0 33 2 35
35 35 l35 0 0 -105 0 -105 35 0 c33 0 35 2 35 35 0 33 2 35 35 35 33 0 35 -2
35 -35 0 -33 2 -35 35 -35 33 0 35 2 35 35 0 33 2 35 35 35 l35 0 0 70 0 70
-35 0 -35 0 0 -70 0 -70 -35 0 -35 0 0 70 0 70 -70 0 -70 0 0 35 0 35 105 0
105 0 0 35 c0 33 -2 35 -35 35 -33 0 -35 2 -35 35 0 33 -2 35 -35 35 -34 0
-35 1 -35 40 0 39 1 40 35 40 33 0 35 2 35 35 0 33 2 35 35 35 33 0 35 -2 35
-35 l0 -35 70 0 70 0 0 35 0 35 -70 0 -70 0 0 35 c0 33 2 35 35 35 33 0 35 2
35 35 0 33 -2 35 -35 35 -33 0 -35 -2 -35 -35 0 -33 -2 -35 -35 -35 l-35 0 0
70 0 70 105 0 105 0 0 70 0 70 -35 0 -35 0 0 70 0 70 35 0 35 0 0 70 0 70 -35
0 c-33 0 -35 2 -35 35 0 33 -2 35 -35 35 l-35 0 0 70 0 70 35 0 c33 0 35 -2
35 -35 0 -33 2 -35 35 -35 l35 0 0 70 0 70 -105 0 -105 0 0 -35 0 -35 -70 0
-70 0 0 35 0 35 -110 0 -110 0 0 105 0 105 -35 0 -35 0 0 70 0 70 35 0 c33 0
35 2 35 35 0 33 -2 35 -35 35 -33 0 -35 2 -35 35 0 33 2 35 35 35 33 0 35 2
35 35 0 33 -2 35 -35 35 -33 0 -35 -2 -35 -35 0 -33 -2 -35 -35 -35 -33 0 -35
2 -35 35 l0 35 -140 0 -140 0 0 -35 c0 -33 -2 -35 -35 -35 -33 0 -35 2 -35 35
l0 35 -70 0 -70 0 0 -35 c0 -33 -2 -35 -35 -35 -33 0 -35 2 -35 35 0 33 -2 35
-35 35 l-35 0 0 -70 0 -70 -35 0 -35 0 0 70 0 70 -35 0 -35 0 0 -105z m420
-35 l0 -70 35 0 c33 0 35 2 35 35 0 33 2 35 35 35 33 0 35 -2 35 -35 0 -33 2
-35 35 -35 33 0 35 2 35 35 0 33 2 35 35 35 33 0 35 2 35 35 0 33 2 35 35 35
33 0 35 -2 35 -35 0 -33 -2 -35 -35 -35 -33 0 -35 -2 -35 -35 0 -33 2 -35 35
-35 33 0 35 -2 35 -35 0 -33 -2 -35 -35 -35 l-35 0 0 -105 0 -105 35 0 35 0 0
70 0 70 35 0 35 0 0 -70 0 -70 -35 0 c-33 0 -35 -2 -35 -35 0 -33 -2 -35 -35
-35 -33 0 -35 -2 -35 -35 l0 -35 105 0 105 0 0 -35 c0 -33 2 -35 35 -35 33 0
35 2 35 35 0 34 1 35 40 35 39 0 40 -1 40 -35 0 -33 2 -35 35 -35 33 0 35 -2
35 -35 0 -33 2 -35 35 -35 33 0 35 -2 35 -35 0 -33 2 -35 35 -35 33 0 35 2 35
35 0 33 2 35 35 35 33 0 35 -2 35 -35 0 -33 -2 -35 -35 -35 -33 0 -35 -2 -35
-35 0 -33 2 -35 35 -35 l35 0 0 -105 0 -105 35 0 c33 0 35 -2 35 -35 0 -33 -2
-35 -35 -35 -33 0 -35 2 -35 35 0 33 -2 35 -35 35 -33 0 -35 2 -35 35 0 33 -2
35 -35 35 l-35 0 0 -70 0 -70 35 0 c33 0 35 -2 35 -35 0 -33 -2 -35 -35 -35
-33 0 -35 2 -35 35 0 33 -2 35 -35 35 l-35 0 0 -70 0 -70 35 0 c33 0 35 -2 35
-35 0 -33 2 -35 35 -35 33 0 35 -2 35 -35 0 -33 -2 -35 -35 -35 -33 0 -35 2
-35 35 0 33 -2 35 -35 35 -33 0 -35 2 -35 35 0 33 -2 35 -35 35 l-35 0 0 70 0
70 -40 0 -40 0 0 -105 0 -105 -35 0 c-33 0 -35 2 -35 35 0 33 -2 35 -35 35
-33 0 -35 2 -35 35 l0 35 -70 0 -70 0 0 -35 c0 -33 2 -35 35 -35 l35 0 0 -70
0 -70 35 0 c33 0 35 -2 35 -35 0 -33 -2 -35 -35 -35 -34 0 -35 -1 -35 -40 0
-39 -1 -40 -35 -40 l-35 0 0 -105 0 -105 35 0 c33 0 35 -2 35 -35 0 -33 -2
-35 -35 -35 -33 0 -35 2 -35 35 l0 35 -70 0 -70 0 0 35 c0 33 -2 35 -35 35
l-35 0 0 -70 0 -70 -35 0 c-33 0 -35 -2 -35 -35 0 -33 -2 -35 -35 -35 -33 0
-35 2 -35 35 0 33 -2 35 -35 35 -33 0 -35 -2 -35 -35 l0 -35 -70 0 -70 0 0 70
0 70 35 0 c33 0 35 2 35 35 0 33 2 35 35 35 33 0 35 -2 35 -35 0 -33 2 -35 35
-35 l35 0 0 70 0 70 35 0 35 0 0 75 0 75 -35 0 c-33 0 -35 2 -35 35 0 33 2 35
35 35 33 0 35 2 35 35 0 33 -2 35 -35 35 -33 0 -35 2 -35 35 l0 35 105 0 105
0 0 35 0 35 70 0 70 0 0 35 c0 33 -2 35 -35 35 -33 0 -35 2 -35 35 0 33 -2 35
-35 35 -33 0 -35 -2 -35 -35 l0 -35 -70 0 -70 0 0 -35 c0 -33 -2 -35 -35 -35
-33 0 -35 2 -35 35 0 33 2 35 35 35 33 0 35 2 35 35 0 33 -2 35 -35 35 -33 0
-35 2 -35 35 0 33 2 35 35 35 33 0 35 -2 35 -35 0 -33 2 -35 35 -35 33 0 35 2
35 35 0 33 2 35 35 35 l35 0 0 70 0 70 35 0 35 0 0 -105 0 -105 35 0 c33 0 35
2 35 35 0 33 2 35 35 35 33 0 35 2 35 35 0 33 -2 35 -35 35 -33 0 -35 2 -35
35 0 33 2 35 35 35 l35 0 0 105 0 105 -105 0 -105 0 0 35 c0 33 -2 35 -35 35
l-35 0 0 -70 0 -70 35 0 c33 0 35 -2 35 -35 0 -33 -2 -35 -35 -35 -33 0 -35
-2 -35 -35 l0 -35 -70 0 -70 0 0 70 0 70 -35 0 -35 0 0 70 0 70 -35 0 c-33 0
-35 -2 -35 -35 0 -33 -2 -35 -35 -35 -33 0 -35 -2 -35 -35 0 -33 -2 -35 -35
-35 -33 0 -35 -2 -35 -35 0 -33 -2 -35 -35 -35 -33 0 -35 2 -35 35 0 33 -2 35
-35 35 -33 0 -35 -2 -35 -35 0 -33 -2 -35 -35 -35 -33 0 -35 -2 -35 -35 l0
-35 70 0 70 0 0 -35 0 -35 -70 0 -70 0 0 35 0 35 -70 0 -70 0 0 35 0 35 70 0
70 0 0 35 c0 33 2 35 35 35 33 0 35 2 35 35 0 33 -2 35 -35 35 -33 0 -35 2
-35 35 0 33 2 35 35 35 33 0 35 -2 35 -35 0 -33 2 -35 35 -35 33 0 35 2 35 35
0 33 2 35 35 35 33 0 35 2 35 35 0 33 2 35 35 35 33 0 35 2 35 35 0 33 -2 35
-35 35 l-35 0 0 70 0 70 140 0 140 0 0 -35 c0 -33 2 -35 35 -35 33 0 35 -2 35
-35 0 -33 -2 -35 -35 -35 -33 0 -35 2 -35 35 0 33 -2 35 -35 35 -33 0 -35 -2
-35 -35 0 -33 -2 -35 -35 -35 -33 0 -35 -2 -35 -35 0 -33 2 -35 35 -35 33 0
35 -2 35 -35 0 -33 2 -35 35 -35 33 0 35 2 35 35 l0 35 70 0 70 0 0 70 0 70
35 0 c33 0 35 2 35 35 l0 35 -70 0 -70 0 0 70 0 70 -35 0 c-33 0 -35 -2 -35
-35 0 -33 -2 -35 -35 -35 -33 0 -35 2 -35 35 0 33 -2 35 -35 35 -33 0 -35 2
-35 35 l0 35 70 0 70 0 0 35 c0 33 2 35 35 35 l35 0 0 -70z m-770 -735 c0 -33
-2 -35 -35 -35 -33 0 -35 2 -35 35 0 33 2 35 35 35 33 0 35 -2 35 -35z m1480
-705 l0 -110 -110 0 -110 0 0 110 0 110 110 0 110 0 0 -110z m-290 -145 c0
-33 -2 -35 -35 -35 -33 0 -35 2 -35 35 0 33 2 35 35 35 33 0 35 -2 35 -35z
m220 -70 l0 -35 -75 0 -75 0 0 35 0 35 75 0 75 0 0 -35z m-430 -140 c0 -33 -2
-35 -35 -35 -33 0 -35 2 -35 35 0 33 2 35 35 35 33 0 35 -2 35 -35z"/>
<path d="M1330 1955 c0 -33 -2 -35 -35 -35 -33 0 -35 -2 -35 -35 0 -33 2 -35
35 -35 33 0 35 2 35 35 0 33 2 35 35 35 33 0 35 2 35 35 0 33 -2 35 -35 35
-33 0 -35 -2 -35 -35z"/>
<path d="M840 1745 c0 -33 2 -35 35 -35 33 0 35 2 35 35 0 33 -2 35 -35 35
-33 0 -35 -2 -35 -35z"/>
<path d="M1260 1745 c0 -33 2 -35 35 -35 33 0 35 2 35 35 0 33 -2 35 -35 35
-33 0 -35 -2 -35 -35z"/>
<path d="M770 1535 c0 -33 2 -35 35 -35 33 0 35 2 35 35 0 33 -2 35 -35 35
-33 0 -35 -2 -35 -35z"/>
<path d="M1540 1465 c0 -33 2 -35 35 -35 33 0 35 2 35 35 0 33 -2 35 -35 35
-33 0 -35 -2 -35 -35z"/>
<path d="M1680 1430 l0 -70 -35 0 c-33 0 -35 -2 -35 -35 l0 -35 -70 0 -70 0 0
-35 c0 -33 2 -35 35 -35 33 0 35 -2 35 -35 0 -33 -2 -35 -35 -35 l-35 0 0 -70
0 -70 35 0 c33 0 35 -2 35 -35 0 -33 2 -35 35 -35 33 0 35 2 35 35 0 33 -2 35
-35 35 -33 0 -35 2 -35 35 l0 35 70 0 70 0 0 35 c0 34 1 35 40 35 l40 0 0 70
0 70 -40 0 c-39 0 -40 1 -40 35 0 34 1 35 40 35 l40 0 0 70 0 70 -40 0 -40 0
0 -70z"/>
<path d="M1830 1255 l0 -35 70 0 70 0 0 35 0 35 -70 0 -70 0 0 -35z"/>
<path d="M1760 1045 c0 -33 2 -35 35 -35 33 0 35 2 35 35 0 33 -2 35 -35 35
-33 0 -35 -2 -35 -35z"/>
<path d="M1260 835 c0 -33 -2 -35 -35 -35 -33 0 -35 -2 -35 -35 0 -33 -2 -35
-35 -35 -33 0 -35 -2 -35 -35 0 -33 2 -35 35 -35 l35 0 0 -75 0 -75 -35 0
c-33 0 -35 -2 -35 -35 0 -33 2 -35 35 -35 33 0 35 2 35 35 0 33 2 35 35 35 33
0 35 -2 35 -35 0 -33 2 -35 35 -35 33 0 35 2 35 35 0 33 -2 35 -35 35 l-35 0
0 75 0 75 -35 0 c-33 0 -35 2 -35 35 0 33 2 35 35 35 33 0 35 2 35 35 0 33 2
35 35 35 l35 0 0 -70 0 -70 35 0 35 0 0 105 0 105 -70 0 -70 0 0 -35z"/>
<path d="M910 335 c0 -33 2 -35 35 -35 33 0 35 2 35 35 0 33 -2 35 -35 35 -33
0 -35 -2 -35 -35z"/>
<path d="M1680 620 l0 -40 40 0 40 0 0 40 0 40 -40 0 -40 0 0 -40z"/>
<path d="M1680 1955 l0 -245 250 0 250 0 0 245 0 245 -250 0 -250 0 0 -245z
m430 0 l0 -175 -175 0 -175 0 0 175 0 175 175 0 175 0 0 -175z"/>
<path d="M1830 1955 l0 -105 105 0 105 0 0 105 0 105 -105 0 -105 0 0 -105z"/>
<path d="M350 1115 c0 -33 -2 -35 -35 -35 -33 0 -35 -2 -35 -35 l0 -35 -70 0
-70 0 0 -140 0 -140 35 0 35 0 0 105 0 105 35 0 c33 0 35 -2 35 -35 l0 -35 70
0 70 0 0 -35 c0 -33 2 -35 35 -35 33 0 35 2 35 35 0 33 -2 35 -35 35 -33 0
-35 2 -35 35 0 33 2 35 35 35 l35 0 0 70 0 70 -35 0 c-33 0 -35 2 -35 35 0 33
-2 35 -35 35 -33 0 -35 -2 -35 -35z"/>
<path d="M4928 842 c-25 -15 -28 -23 -28 -69 l0 -53 -32 0 c-44 0 -54 -8 -74
-55 -23 -54 -23 -215 -1 -267 17 -41 55 -65 84 -53 10 4 33 7 51 6 l32 -3 0
256 c0 141 -1 256 -2 256 -2 0 -15 -8 -30 -18z m-37 -203 c15 -29 8 -204 -9
-221 -26 -26 -42 18 -42 115 0 113 22 159 51 106z"/>
<path d="M5229 845 c-15 -8 -34 -32 -43 -54 -36 -91 -29 -334 11 -402 21 -36
63 -53 107 -45 69 13 96 85 96 256 0 54 -5 123 -11 152 -20 93 -88 132 -160
93z m89 -87 c17 -37 18 -274 1 -312 -16 -35 -57 -33 -77 4 -18 36 -13 300 7
324 20 24 53 16 69 -16z"/>
<path d="M6858 840 l-28 -15 0 -238 0 -239 33 3 c17 1 40 -2 50 -6 29 -12 67
12 84 53 23 54 22 226 -2 275 -18 38 -48 54 -85 44 -17 -4 -19 1 -22 67 l-3
72 -27 -16z m82 -199 c16 -30 13 -193 -4 -217 -26 -35 -41 -2 -44 100 -5 116
18 172 48 117z"/>
<path d="M8923 843 c-31 -12 -33 -16 -33 -63 0 -43 -3 -50 -20 -50 -16 0 -20
-7 -20 -35 0 -28 4 -35 20 -35 19 0 20 -7 20 -135 0 -131 1 -137 25 -160 23
-24 59 -33 68 -17 2 4 7 19 11 35 5 23 3 27 -14 27 -19 0 -20 6 -20 125 0 118
1 125 20 125 16 0 20 7 20 35 0 28 -4 35 -20 35 -17 0 -19 8 -22 63 l-3 64
-32 -14z"/>
<path d="M9103 843 c-31 -12 -33 -16 -33 -63 0 -43 -3 -50 -20 -50 -16 0 -20
-7 -20 -35 0 -28 4 -35 20 -35 19 0 20 -7 20 -135 0 -131 1 -137 25 -160 23
-24 59 -33 68 -17 2 4 7 19 11 35 5 23 3 27 -14 27 -19 0 -20 6 -20 125 0 118
1 125 20 125 16 0 20 7 20 35 0 28 -4 35 -20 35 -17 0 -19 8 -22 63 l-3 64
-32 -14z"/>
<path d="M10955 836 c-23 -23 -45 -83 -45 -121 1 -11 7 -38 15 -59 10 -30 11
-44 3 -60 -20 -36 -27 -99 -17 -151 21 -115 142 -143 191 -45 22 44 23 127 2
180 -14 33 -14 45 -4 70 7 18 11 55 8 91 -4 54 -8 66 -36 90 -40 36 -84 38
-117 5z m89 -69 c16 -59 -1 -117 -33 -117 -24 0 -31 19 -31 80 0 36 5 52 17
58 23 13 40 5 47 -21z m-6 -199 c18 -23 23 -76 12 -117 -9 -34 -15 -41 -35
-41 -14 0 -29 8 -35 19 -13 25 -13 92 0 125 10 28 41 35 58 14z"/>
<path d="M11233 843 c-31 -12 -33 -16 -33 -63 0 -43 -3 -50 -20 -50 -16 0 -20
-7 -20 -35 0 -28 4 -35 20 -35 19 0 20 -7 20 -135 0 -131 1 -137 25 -160 23
-24 59 -33 68 -17 2 4 7 19 11 35 5 23 3 27 -14 27 -19 0 -20 6 -20 125 0 118
1 125 20 125 16 0 20 7 20 35 0 28 -4 35 -20 35 -17 0 -19 8 -22 63 l-3 64
-32 -14z"/>
<path d="M11388 844 l-28 -15 0 -239 0 -240 35 0 35 0 0 145 c0 124 2 147 16
152 28 10 34 -18 34 -159 l0 -138 30 0 30 0 0 155 c0 91 -4 164 -11 178 -15
33 -54 50 -80 37 -18 -10 -19 -7 -19 65 0 41 -3 75 -7 75 -5 -1 -20 -8 -35
-16z"/>
<path d="M11773 840 c-18 -11 -33 -21 -33 -22 0 -2 -4 -18 -9 -36 -9 -32 -9
-32 24 -32 25 0 35 5 40 19 8 27 43 37 62 18 26 -26 17 -64 -35 -150 -52 -85
-86 -172 -95 -244 l-5 -43 109 0 109 0 0 35 0 35 -70 0 -70 0 6 28 c4 15 25
61 47 102 22 41 50 95 63 119 35 66 32 115 -10 157 -40 40 -83 45 -133 14z"/>
<path d="M12069 845 c-15 -8 -34 -32 -43 -54 -36 -91 -29 -334 11 -402 21 -36
63 -53 107 -45 69 13 96 85 96 256 0 54 -5 123 -11 152 -20 93 -88 132 -160
93z m89 -87 c17 -37 18 -274 1 -312 -16 -35 -57 -33 -77 4 -18 36 -13 300 7
324 20 24 53 16 69 -16z"/>
<path d="M12601 805 c-91 -96 -143 -252 -121 -365 21 -112 142 -135 190 -35
47 96 9 223 -71 240 l-29 7 21 38 c12 22 39 56 60 76 37 36 37 38 23 66 -8 15
-16 28 -18 28 -2 0 -26 -25 -55 -55z m3 -241 c20 -20 24 -73 11 -131 -7 -29
-50 -31 -65 -4 -15 29 -12 104 6 129 18 26 27 27 48 6z"/>
<path d="M13569 845 c-15 -8 -34 -32 -43 -54 -36 -91 -29 -334 11 -402 21 -36
63 -53 107 -45 69 13 96 85 96 256 0 54 -5 123 -11 152 -20 93 -88 132 -160
93z m89 -87 c17 -37 18 -274 1 -312 -16 -35 -57 -33 -77 4 -18 36 -13 300 7
324 20 24 53 16 69 -16z"/>
<path d="M14462 835 c-40 -33 -52 -88 -52 -229 0 -149 13 -208 52 -241 34 -29
68 -32 108 -8 40 23 50 52 50 148 l0 85 -50 0 c-49 0 -50 -1 -50 -30 0 -23 4
-30 20 -30 17 0 20 -7 20 -43 0 -54 -18 -82 -48 -73 -12 4 -25 19 -29 34 -10
35 -10 279 -1 313 13 44 60 49 73 8 8 -23 65 -27 65 -4 0 28 -24 67 -51 81
-41 21 -74 17 -107 -11z"/>
<path d="M15277 839 c-15 -11 -31 -38 -37 -59 -14 -50 2 -97 59 -173 84 -115
99 -192 35 -192 -24 0 -31 5 -39 33 -8 28 -13 32 -43 32 -33 0 -33 -1 -27 -32
20 -91 85 -130 160 -96 35 16 55 57 55 110 0 53 -24 105 -82 183 -52 70 -60
88 -52 121 9 34 51 33 64 -1 7 -19 17 -25 41 -25 30 0 31 1 25 33 -14 73 -103
111 -159 66z"/>
<path d="M16217 839 c-15 -11 -31 -38 -37 -59 -14 -50 2 -97 59 -173 84 -115
99 -192 35 -192 -24 0 -31 5 -39 33 -8 28 -13 32 -43 32 -33 0 -33 -1 -27 -32
20 -91 85 -130 160 -96 35 16 55 57 55 110 0 53 -24 105 -82 183 -52 70 -60
88 -52 121 9 34 51 33 64 -1 7 -19 17 -25 41 -25 30 0 31 1 25 33 -14 73 -103
111 -159 66z"/>
<path d="M2470 818 c0 -18 3 -63 7 -100 5 -56 9 -68 24 -68 18 0 20 9 32 153
l5 47 -34 0 c-32 0 -34 -2 -34 -32z"/>
<path d="M2600 803 c0 -96 11 -153 30 -153 19 0 30 57 30 153 0 46 -1 47 -30
47 -29 0 -30 -1 -30 -47z"/>
<path d="M2750 600 l0 -250 30 0 30 0 1 153 1 152 32 -98 32 -97 31 92 31 93
1 -147 1 -148 30 0 30 0 0 250 0 250 -29 0 c-27 0 -30 -4 -61 -102 l-33 -103
-34 103 c-33 98 -36 102 -64 102 l-29 0 0 -250z"/>
<path d="M3880 820 c0 -27 3 -30 30 -30 l30 0 0 -220 0 -220 30 0 30 0 0 220
0 220 35 0 c32 0 35 2 35 30 l0 30 -95 0 -95 0 0 -30z"/>
<path d="M5830 600 l0 -250 30 0 30 0 1 153 1 152 32 -98 32 -97 31 92 31 93
1 -147 1 -148 30 0 30 0 0 250 0 250 -29 0 c-27 0 -30 -4 -61 -102 l-33 -103
-34 103 c-33 98 -36 102 -64 102 l-29 0 0 -250z"/>
<path d="M6410 818 c0 -18 3 -63 7 -100 5 -56 9 -68 24 -68 18 0 20 9 32 153
l5 47 -34 0 c-32 0 -34 -2 -34 -32z"/>
<path d="M6540 803 c0 -96 11 -153 30 -153 19 0 30 57 30 153 0 46 -1 47 -30
47 -29 0 -30 -1 -30 -47z"/>
<path d="M7450 600 l0 -250 30 0 30 0 1 153 1 152 32 -98 32 -97 31 92 31 93
1 -147 1 -148 30 0 30 0 0 250 0 250 -29 0 c-27 0 -30 -4 -61 -102 l-33 -103
-34 103 c-33 98 -36 102 -64 102 l-29 0 0 -250z"/>
<path d="M9800 600 l0 -250 30 0 30 0 1 153 1 152 32 -98 32 -97 31 92 31 93
1 -147 1 -148 30 0 30 0 0 250 0 250 -29 0 c-27 0 -30 -4 -61 -102 l-33 -103
-34 103 c-33 98 -36 102 -64 102 l-29 0 0 -250z"/>
<path d="M10768 832 c-35 -21 -40 -72 -8 -72 19 0 20 -7 20 -205 l0 -205 30 0
30 0 0 250 0 250 -22 -1 c-13 0 -35 -8 -50 -17z"/>
<path d="M12338 832 c-35 -21 -40 -72 -8 -72 19 0 20 -7 20 -205 l0 -205 30 0
30 0 0 250 0 250 -22 -1 c-13 0 -35 -8 -50 -17z"/>
<path d="M13210 600 l0 -250 35 0 35 0 1 138 1 137 45 -137 c44 -136 45 -138
74 -138 l29 0 0 250 0 250 -30 0 -30 0 -1 -137 -1 -138 -44 138 -45 137 -34 0
-35 0 0 -250z"/>
<path d="M13940 600 l0 -250 30 0 30 0 0 115 c0 107 1 115 19 115 16 0 23 -16
41 -97 31 -140 28 -133 61 -133 16 0 29 5 29 10 0 6 -11 58 -25 116 l-25 106
24 28 c48 58 41 167 -15 214 -26 22 -40 26 -100 26 l-69 0 0 -250z m130 170
c42 -42 15 -120 -42 -120 l-28 0 0 70 c0 68 1 70 25 70 14 0 34 -9 45 -20z"/>
<path d="M14250 600 l0 -250 35 0 35 0 0 250 0 250 -35 0 -35 0 0 -250z"/>
<path d="M14700 600 l0 -250 30 0 30 0 0 115 0 115 45 0 45 0 0 -115 0 -115
35 0 35 0 0 250 0 250 -35 0 -35 0 0 -100 0 -100 -45 0 -45 0 0 100 0 100 -30
0 -30 0 0 -250z"/>
<path d="M14990 820 c0 -27 3 -30 30 -30 l30 0 0 -220 0 -220 30 0 30 0 0 220
0 220 35 0 c32 0 35 2 35 30 l0 30 -95 0 -95 0 0 -30z"/>
<path d="M15640 600 l0 -250 30 0 30 0 0 115 c0 107 1 115 19 115 16 0 23 -16
41 -97 31 -140 28 -133 61 -133 16 0 29 5 29 10 0 6 -11 58 -25 116 l-25 106
24 28 c48 58 41 167 -15 214 -26 22 -40 26 -100 26 l-69 0 0 -250z m130 170
c42 -42 15 -120 -42 -120 l-28 0 0 70 c0 68 1 70 25 70 14 0 34 -9 45 -20z"/>
<path d="M15930 600 l0 -250 95 0 95 0 0 35 0 35 -65 0 -65 0 0 85 0 85 40 0
c39 0 40 1 40 35 0 34 -1 35 -40 35 l-40 0 0 65 0 65 60 0 60 0 0 30 0 30 -90
0 -90 0 0 -250z"/>
<path d="M16440 600 l0 -250 95 0 95 0 0 35 0 35 -65 0 -65 0 0 85 0 85 40 0
c39 0 40 1 40 35 0 34 -1 35 -40 35 l-40 0 0 65 0 65 60 0 60 0 0 30 0 30 -90
0 -90 0 0 -250z"/>
<path d="M16690 600 l0 -250 30 0 30 0 0 115 c0 107 1 115 19 115 16 0 23 -16
41 -97 31 -140 28 -133 61 -133 16 0 29 5 29 10 0 6 -11 58 -25 116 l-25 106
24 28 c48 58 41 167 -15 214 -26 22 -40 26 -100 26 l-69 0 0 -250z m130 170
c42 -42 15 -120 -42 -120 l-28 0 0 70 c0 68 1 70 25 70 14 0 34 -9 45 -20z"/>
<path d="M16970 843 c0 -5 19 -117 42 -250 l43 -243 27 0 c32 0 26 -22 74 250
19 113 38 215 41 228 5 20 1 22 -29 22 l-35 0 -23 -137 -24 -138 -23 115 c-34
171 -29 160 -63 160 -17 0 -30 -3 -30 -7z"/>
<path d="M17250 600 l0 -250 95 0 95 0 0 35 0 35 -65 0 -65 0 0 85 0 85 40 0
c39 0 40 1 40 35 0 34 -1 35 -40 35 l-40 0 0 65 0 65 60 0 60 0 0 30 0 30 -90
0 -90 0 0 -250z"/>
<path d="M17500 600 l0 -250 66 0 c58 0 69 3 94 28 35 35 50 103 50 227 0 120
-14 186 -47 219 -23 23 -34 26 -94 26 l-69 0 0 -250z m119 171 c25 -25 35
-107 28 -217 -6 -96 -23 -134 -62 -134 l-25 0 0 185 c0 178 1 185 20 185 11 0
29 -9 39 -19z"/>
<path d="M9234 816 c-10 -26 4 -48 28 -44 17 2 23 10 23 28 0 18 -6 26 -23 28
-13 2 -25 -3 -28 -12z"/>
<path d="M560 765 l0 -35 70 0 70 0 0 -35 c0 -33 2 -35 35 -35 l35 0 0 70 0
70 -105 0 -105 0 0 -35z"/>
<path d="M3115 716 c-47 -20 -59 -39 -36 -60 15 -14 23 -15 44 -5 32 14 57 -1
57 -35 0 -19 -5 -22 -28 -18 -20 3 -37 -4 -57 -21 -25 -21 -29 -33 -33 -91 -5
-76 10 -124 44 -136 12 -5 48 -6 79 -3 l56 6 -3 163 c-3 148 -5 165 -23 183
-28 26 -64 32 -100 17z m63 -225 c6 -55 -5 -83 -31 -79 -17 2 -23 11 -25 37
-6 55 5 83 31 79 17 -2 23 -11 25 -37z"/>
<path d="M3573 719 c-44 -16 -58 -64 -58 -191 0 -103 2 -120 21 -145 12 -15
33 -32 47 -37 33 -12 81 8 95 40 10 21 8 25 -17 39 -26 13 -30 13 -35 0 -14
-39 -56 -2 -56 49 0 25 2 26 61 26 l62 0 -7 72 c-11 119 -51 170 -113 147z
m47 -78 c5 -11 10 -33 10 -50 0 -28 -3 -31 -30 -31 -27 0 -30 3 -30 31 0 33
15 69 30 69 5 0 14 -9 20 -19z"/>
<path d="M4226 722 c-3 -3 -26 -4 -51 -4 l-45 2 0 -185 0 -185 30 0 30 0 0
124 c0 146 9 180 45 174 26 -5 35 7 35 47 0 21 -31 41 -44 27z"/>
<path d="M4363 719 c-44 -16 -58 -64 -58 -191 0 -103 2 -120 21 -145 12 -15
33 -32 47 -37 33 -12 81 8 95 40 10 21 8 25 -17 39 -26 13 -30 13 -35 0 -14
-39 -56 -2 -56 49 0 25 2 26 61 26 l62 0 -7 72 c-11 119 -51 170 -113 147z
m47 -78 c5 -11 10 -33 10 -50 0 -28 -3 -31 -30 -31 -27 0 -30 3 -30 31 0 33
15 69 30 69 5 0 14 -9 20 -19z"/>
<path d="M4595 716 c-47 -20 -59 -39 -36 -60 15 -14 23 -15 44 -5 32 14 57 -1
57 -35 0 -19 -5 -22 -28 -18 -20 3 -37 -4 -57 -21 -25 -21 -29 -33 -33 -91 -5
-76 10 -124 44 -136 12 -5 48 -6 79 -3 l56 6 -3 163 c-3 148 -5 165 -23 183
-28 26 -64 32 -100 17z m63 -225 c6 -55 -5 -83 -31 -79 -17 2 -23 11 -25 37
-6 55 5 83 31 79 17 -2 23 -11 25 -37z"/>
<path d="M5556 723 c-3 -4 -27 -6 -51 -4 l-45 2 0 -186 0 -185 35 0 35 0 0
145 c0 124 2 147 16 152 28 10 34 -18 34 -159 l0 -138 30 0 30 0 0 155 c0 165
-7 196 -47 214 -28 13 -28 13 -37 4z"/>
<path d="M6203 719 c-44 -16 -58 -64 -58 -191 0 -103 2 -120 21 -145 12 -15
33 -32 47 -37 33 -12 81 8 95 40 10 21 8 25 -17 39 -26 13 -30 13 -35 0 -14
-39 -56 -2 -56 49 0 25 2 26 61 26 l62 0 -7 72 c-11 119 -51 170 -113 147z
m47 -78 c5 -11 10 -33 10 -50 0 -28 -3 -31 -30 -31 -27 0 -30 3 -30 31 0 33
15 69 30 69 5 0 14 -9 20 -19z"/>
<path d="M7815 716 c-47 -20 -59 -39 -36 -60 15 -14 23 -15 44 -5 32 14 57 -1
57 -35 0 -19 -5 -22 -28 -18 -20 3 -37 -4 -57 -21 -25 -21 -29 -33 -33 -91 -5
-76 10 -124 44 -136 12 -5 48 -6 79 -3 l56 6 -3 163 c-3 148 -5 165 -23 183
-28 26 -64 32 -100 17z m63 -225 c6 -55 -5 -83 -31 -79 -17 2 -23 11 -25 37
-6 55 5 83 31 79 17 -2 23 -11 25 -37z"/>
<path d="M8273 719 c-44 -16 -58 -64 -58 -191 0 -103 2 -120 21 -145 12 -15
33 -32 47 -37 33 -12 81 8 95 40 10 21 8 25 -17 39 -26 13 -30 13 -35 0 -14
-39 -56 -2 -56 49 0 25 2 26 61 26 l62 0 -7 72 c-11 119 -51 170 -113 147z
m47 -78 c5 -11 10 -33 10 -50 0 -28 -3 -31 -30 -31 -27 0 -30 3 -30 31 0 33
15 69 30 69 5 0 14 -9 20 -19z"/>
<path d="M8556 722 c-3 -3 -26 -4 -51 -4 l-45 2 0 -185 0 -185 30 0 30 0 0
124 c0 146 9 180 45 174 26 -5 35 7 35 47 0 21 -31 41 -44 27z"/>
<path d="M8685 716 c-47 -20 -59 -39 -36 -60 15 -14 23 -15 44 -5 32 14 57 -1
57 -35 0 -19 -5 -22 -28 -18 -20 3 -37 -4 -57 -21 -25 -21 -29 -33 -33 -91 -5
-76 10 -124 44 -136 12 -5 48 -6 79 -3 l56 6 -3 163 c-3 148 -5 165 -23 183
-28 26 -64 32 -100 17z m63 -225 c6 -55 -5 -83 -31 -79 -17 2 -23 11 -25 37
-6 55 5 83 31 79 17 -2 23 -11 25 -37z"/>
<path d="M10165 716 c-47 -20 -59 -39 -36 -60 15 -14 23 -15 44 -5 32 14 57
-1 57 -35 0 -19 -5 -22 -28 -18 -20 3 -37 -4 -57 -21 -25 -21 -29 -33 -33 -91
-5 -76 10 -124 44 -136 12 -5 48 -6 79 -3 l56 6 -3 163 c-3 148 -5 165 -23
183 -28 26 -64 32 -100 17z m63 -225 c6 -55 -5 -83 -31 -79 -17 2 -23 11 -25
37 -6 55 5 83 31 79 17 -2 23 -11 25 -37z"/>
<path d="M3290 685 c0 -35 0 -35 45 -35 25 0 45 -3 45 -6 0 -3 -22 -60 -50
-128 -70 -171 -71 -166 40 -166 l90 0 0 35 0 35 -51 0 c-37 0 -50 3 -46 12 3
7 26 61 51 120 25 59 46 121 46 137 l0 31 -85 0 -85 0 0 -35z"/>
<path d="M7054 703 c3 -10 23 -94 45 -186 l41 -168 -20 -85 c-11 -47 -20 -87
-20 -90 0 -3 12 -4 27 -2 28 3 28 4 90 268 34 146 62 269 63 273 0 5 -15 7
-32 5 l-33 -3 -19 -102 c-11 -57 -22 -103 -25 -103 -3 0 -17 47 -30 105 l-24
105 -34 0 c-28 0 -33 -3 -29 -17z"/>
<path d="M7990 685 c0 -35 0 -35 45 -35 25 0 45 -3 45 -6 0 -3 -22 -60 -50
-128 -70 -171 -71 -166 40 -166 l90 0 0 35 0 35 -51 0 c-37 0 -50 3 -46 12 3
7 26 61 51 120 25 59 46 121 46 137 l0 31 -85 0 -85 0 0 -35z"/>
<path d="M9230 535 l0 -185 30 0 30 0 0 185 0 185 -30 0 -30 0 0 -185z"/>
<path d="M10334 703 c3 -10 23 -94 45 -186 l41 -168 -20 -85 c-11 -47 -20 -87
-20 -90 0 -3 12 -4 27 -2 28 3 28 4 90 268 34 146 62 269 63 273 0 5 -15 7
-32 5 l-33 -3 -19 -102 c-11 -57 -22 -103 -25 -103 -3 0 -17 47 -30 105 l-24
105 -34 0 c-28 0 -33 -3 -29 -17z"/>
<path d="M140 410 l0 -250 245 0 245 0 0 250 0 250 -245 0 -245 0 0 -250z
m420 -5 l0 -175 -175 0 -175 0 0 175 0 175 175 0 175 0 0 -175z"/>
<path d="M280 405 l0 -105 105 0 105 0 0 105 0 105 -105 0 -105 0 0 -105z"/>
<path d="M9470 600 l0 -30 75 0 75 0 0 30 0 30 -75 0 -75 0 0 -30z"/>
<path d="M12870 600 l0 -30 75 0 75 0 0 30 0 30 -75 0 -75 0 0 -30z"/>
<path d="M2110 545 c0 -33 2 -35 35 -35 33 0 35 2 35 35 0 33 -2 35 -35 35
-33 0 -35 -2 -35 -35z"/>
<path d="M1610 195 c0 -33 2 -35 35 -35 33 0 35 2 35 35 0 33 -2 35 -35 35
-33 0 -35 -2 -35 -35z"/>
</g>
</svg>
