<?xml version="1.0" standalone="no"?>
<!DOCTYPE svg PUBLIC "-//W3C//DTD SVG 1.1//EN" "http://www.w3.org/Graphics/SVG/1.1/DTD/svg11.dtd" >
<svg xmlns="http://www.w3.org/2000/svg" xmlns:xlink="http://www.w3.org/1999/xlink" version="1.1">
<metadata>
Created by FontForge 20200427 at Fri Sep  7 22:35:48 2018
 By www
</metadata>
<defs>
<font id="1251-Regular" horiz-adv-x="130" >
  <font-face 
    font-family="1251"
    font-weight="400"
    font-stretch="normal"
    units-per-em="1000"
    panose-1="0 0 5 0 0 0 0 0 0 0"
    ascent="800"
    descent="-200"
    cap-height="700"
    bbox="-166 -214 1968 860"
    underline-thickness="50"
    underline-position="-100"
    unicode-range="U+0020-25CA"
  />
<missing-glyph horiz-adv-x="500" 
d="M410 -200h-317v1000h317v-1000zM168 733v-33h65v-37h-66v-33h166v33h-66v37h66v33h-165zM167 604v-104h166v34h-66v70h-100zM233 534h-33v36h33v-36zM167 473v-33h66v-37h-66v-33h100v70h66v33h-166zM300 413v-66h-133v-34h166v100h-33zM233 291v-56h34v23h33v-47h-100
v80h-33v-113h166v113h-100zM167 118v-113h166v113h-166zM300 38h-100v47h100v-47zM167 -18v-33h70l-70 -47v-33h166v33h-102l70 47h32v33h-166z" />
    <glyph glyph-name=".notdef" horiz-adv-x="500" 
d="M410 -200h-317v1000h317v-1000zM168 733v-33h65v-37h-66v-33h166v33h-66v37h66v33h-165zM167 604v-104h166v34h-66v70h-100zM233 534h-33v36h33v-36zM167 473v-33h66v-37h-66v-33h100v70h66v33h-166zM300 413v-66h-133v-34h166v100h-33zM233 291v-56h34v23h33v-47h-100
v80h-33v-113h166v113h-100zM167 118v-113h166v113h-166zM300 38h-100v47h100v-47zM167 -18v-33h70l-70 -47v-33h166v33h-102l70 47h32v33h-166z" />
    <glyph glyph-name=".null" horiz-adv-x="0" 
 />
    <glyph glyph-name="nonmarkingreturn" horiz-adv-x="333" 
 />
    <glyph glyph-name="space" unicode=" " horiz-adv-x="600" 
 />
    <glyph glyph-name="exclam" unicode="!" horiz-adv-x="185" 
d="M83 714h20v-532h-20v532zM83 98h20v-98h-20v98z" />
    <glyph glyph-name="quotedbl" unicode="&#x22;" horiz-adv-x="278" 
d="M73 489v225h20v-225h-20zM185 489v225h20v-225h-20z" />
    <glyph glyph-name="numbersign" unicode="#" horiz-adv-x="556" 
d="M214 446h171l31 234h20l-31 -234h116v-20h-121l-24 -177h117v-20h-121l-31 -229h-20l31 229h-172l-31 -229h-20l31 229h-125v20h130l24 177h-126v20h131l31 234h20zM356 249l24 177h-171l-24 -177h171z" />
    <glyph glyph-name="dollar" unicode="$" horiz-adv-x="556" 
d="M89 64q63 -56 176 -60v356q-83 19 -127.5 34.5t-77.5 51.5t-33 101q0 96 69.5 139.5t168.5 44.5v43h20v-44q106 -2 169.5 -54t68.5 -162h-20q-4 100 -62 147t-156 49v-334l8 -2l28 -7q77 -19 119.5 -36.5t69.5 -54t27 -101.5q0 -64 -36 -107.5t-93.5 -64t-122.5 -20.5
v-88h-20v89q-121 5 -191 67.5t-68 185.5h20q0 -117 63 -173zM111.5 671.5q-64.5 -38.5 -64.5 -124.5q0 -56 29 -87.5t71.5 -46.5t117.5 -32v330q-89 -1 -153.5 -39.5zM397.5 21.5q52.5 18.5 86 57.5t33.5 97q0 59 -29 93t-70.5 50t-109.5 31q-7 1 -23 5v-352
q60 0 112.5 18.5z" />
    <glyph glyph-name="percent" unicode="%" horiz-adv-x="685" 
d="M587 714l-476 -748h-23l476 748h23zM61.5 644q40.5 48 111.5 48q74 0 114.5 -47.5t40.5 -124.5q0 -72 -41.5 -121t-113.5 -49q-74 0 -113 49t-39 120q0 77 40.5 125zM75 412.5q34 -42.5 98 -42.5t99.5 43t35.5 106q0 71 -34 112t-101 41q-66 0 -99 -41.5t-33 -111.5
q0 -64 34 -106.5zM397.5 282q40.5 48 111.5 48q74 0 114.5 -47.5t40.5 -124.5q0 -72 -41.5 -121t-113.5 -49q-74 0 -113 49t-39 120q0 77 40.5 125zM411 50.5q34 -42.5 98 -42.5t99.5 43t35.5 106q0 71 -34 112t-101 41q-66 0 -99 -41.5t-33 -111.5q0 -64 34 -106.5z" />
    <glyph glyph-name="quotesingle" unicode="'" horiz-adv-x="167" 
d="M94 714v-225h-20v225h20z" />
    <glyph glyph-name="parenleft" unicode="(" horiz-adv-x="222" 
d="M118 512.5q-30 -114.5 -30 -230.5q0 -120 29.5 -237t87.5 -222h-20q-60 117 -88.5 225t-28.5 234q0 116 30 230.5t86 218.5h20q-56 -104 -86 -218.5z" />
    <glyph glyph-name="parenright" unicode=")" horiz-adv-x="222" 
d="M104 41.5q30 114.5 30 230.5q0 120 -29.5 237t-87.5 222h20q60 -117 88.5 -225t28.5 -234q0 -116 -30 -230.5t-86 -218.5h-20q56 104 86 218.5z" />
    <glyph glyph-name="asterisk" unicode="*" horiz-adv-x="352" 
d="M184 574l132 43l4 -19l-130 -43l83 -109l-16 -12l-83 108l-84 -104l-16 13l88 104l-130 43l6 19l126 -43v140h20v-140z" />
    <glyph glyph-name="plus" unicode="+" horiz-adv-x="600" 
d="M310 506v-243h242v-20h-242v-243h-20v243h-242v20h242v243h20z" />
    <glyph glyph-name="comma" unicode="," horiz-adv-x="278" 
d="M149 0q0 -46 -10 -74t-34 -45v20q13 13 18.5 36t5.5 63v98h20v-98z" />
    <glyph glyph-name="hyphen" unicode="-" horiz-adv-x="333" 
d="M254 278v-20h-175v20h175z" />
    <glyph glyph-name="period" unicode="." horiz-adv-x="278" 
d="M129 0v98h20v-98h-20z" />
    <glyph glyph-name="slash" unicode="/" horiz-adv-x="333" 
d="M320 731h20l-327 -748h-20z" />
    <glyph glyph-name="zero" unicode="0" horiz-adv-x="1212" 
d="M1192 578q-4 -280 -172 -427q-172 -151 -542 -151h-458v121q5 281 172 428q172 151 542 151h115h9h334v-122zM1192 578h-469q-325 0 -481 -105t-189 -205q-28 -89 -33 -147h469q325 0 481 105t189 206q29 89 33 146z" />
    <glyph glyph-name="one" unicode="1" horiz-adv-x="748" 
d="M725 0h-675v121h328v487q0 -350 -313 -346h-42v121h71q125 4 189 76q62 70 79 140q16 67 16 103v-2h23v-579h324v-121z" />
    <glyph glyph-name="two" unicode="2" horiz-adv-x="1405" 
d="M1145 700v-122h-178q-416 0 -619 -73q-204 -74 -251 -146q-48 -72 -48 -110q0 161 127 261q127 101 335 146q211 44 467 44h167zM1130 522q14 38 15 56q0 -136 -64 -204q-65 -70 -168 -90q-77 -16 -207 -21h-3q-17 -1 -51 -1h-84l-83 -1q-112 -1 -185 -5
q-124 -8 -184 -37q-62 -30 -77 -57q-14 -24 -16 -39q4 109 69 168q65 57 166 75q88 14 204 17h1l53 1h85l83 1q111 1 184 5q125 8 185 50q60 41 77 82zM1355 451q0 -160 -126 -261q-130 -102 -335 -145q-208 -45 -468 -45h-403v121h414q414 0 619 74t252 146q47 73 47 110z
" />
    <glyph glyph-name="three" unicode="3" horiz-adv-x="1513" 
d="M1483 700v-122h-178q-416 0 -619 -73q-204 -74 -251 -146q-48 -72 -48 -110q0 161 127 261q127 101 335 146q211 44 467 44h167zM1468 522q14 38 15 56q0 -136 -64 -204q-64 -70 -168 -90l-14 -3q65 -59 66 -160q-3 13 -21 38q-20 29 -87 61q-64 30 -189 38q-45 3 -156 5
l-50 1q-46 1 -150 1v121h263q237 0 293 4q125 8 185 50q60 41 77 82zM1125 121h178v-122h-167q-431 0 -637 43q-229 47 -354 147q-125 101 -125 252q0 -19 16 -58q17 -43 83 -98q68 -57 203 -99q212 -65 803 -65z" />
    <glyph glyph-name="four" unicode="4" horiz-adv-x="1626" 
d="M1606 562q0 -104 -65 -161q-64 -56 -170 -76q-115 -21 -258 -21h-179v-183h324v-121h-675v121h328v183q-380 -2 -574 -40q-204 -41 -259 -84q-56 -45 -58 -80q0 13 2 37q8 173 128 295q131 134 343 200q216 68 473 68h295v-121h-327v-154h69q211 0 326 7q124 8 185 36
t77 55q15 26 15 39zM911 425v154q-383 -6 -578 -103q-206 -102 -259 -205q-11 -20 -25 -53q31 55 95 91q125 72 320 94q180 20 447 22z" />
    <glyph glyph-name="five" unicode="5" horiz-adv-x="1240" 
d="M1217 578h-469q-325 0 -481 -105t-189 -205t-33 -162q0 292 172 443q24 20 37 29h-209v-459h-22v581h232v-121q172 121 504 121h115h9h334v-122zM1184 432q29 89 33 146q-4 -280 -172 -427q-172 -151 -542 -151h-264v121h275q325 0 481 105t189 206z" />
    <glyph glyph-name="six" unicode="6" horiz-adv-x="1060" 
d="M1030 387v-121q-349 0 -530 -7q-198 -8 -299 -38q-105 -32 -137 -61q-29 -26 -34 -38v7q6 275 172 420q172 151 542 151h285v-121h-296q-325 0 -481 -105t-189 -206q-19 -59 -27 -102q29 112 216 162q224 59 589 59h189zM1030 266q-1 -148 -221 -207q-224 -59 -589 -59
h-190v121q350 0 531 7q198 8 299 38q105 32 137 61q29 26 33 39z" />
    <glyph glyph-name="seven" unicode="7" horiz-adv-x="1361" 
d="M1164 700v-122h-178q-416 0 -619 -73q-204 -74 -251 -146q-48 -72 -48 -110q0 161 127 261q127 101 335 146q211 44 467 44h167zM1361 65q0 19 -15 59q-17 39 -77 82q-61 41 -185 49q-32 2 -59 2q-125 -123 -331 -188q-216 -69 -474 -69h-189v121h200q416 0 623 103
q32 16 67 36h-21h-27q-144 2 -195 2v121h190q116 -2 203 -12q26 27 42 58q49 97 51 149q-2 -117 -54 -213l19 -3q104 -21 168 -90q64 -70 64 -207z" />
    <glyph glyph-name="eight" unicode="8" horiz-adv-x="1729" 
d="M757 315h-2q-71 1 -112.5 4.5t-112.5 11.5q-68 8 -129.5 29t-107.5 51q-86 54 -94 167q3 -14 20 -38q19 -26 107 -57q87 -31 255 -37l36 -1l132 -3q-1 4 -5 16t-9 20q-18 29 -77 58q-65 31 -188 37q-100 5 -186 5h-254v122l222 1q154 0 260 -19q105 -18 169 -75
q69 -61 70 -165l84 -1h34q200 -2 272 -2q84 -3 122 -6.5t86 -10.5l28 -5q142 -21 232 -90q86 -67 88 -203q-1 18 -20 55q-22 40 -107 82q-82 41 -255 50q-50 3 -172 3h-264q-88 0 -122 1zM1699 2l-263 -2q-201 -1 -360 22q-142 21 -232 90q-86 67 -88 203q1 -19 21 -55
q21 -40 106 -82q83 -41 255 -50q77 -4 405 -4h156v-122z" />
    <glyph glyph-name="nine" unicode="9" horiz-adv-x="1060" 
d="M30 434q1 148 221 207q224 59 589 59h190v-121q-350 0 -531 -7q-198 -8 -299 -38q-105 -32 -137 -61q-29 -26 -33 -39zM30 313v121q349 0 530 7q198 8 299 38q105 32 137 61q29 26 34 38v-7q-6 -275 -172 -420q-172 -151 -542 -151h-285v121h296q325 0 481 105t189 206
q20 58 27 102q-29 -112 -216 -162q-224 -59 -589 -59h-189z" />
    <glyph glyph-name="colon" unicode=":" horiz-adv-x="278" 
d="M129 514h20v-98h-20v98zM129 98h20v-98h-20v98z" />
    <glyph glyph-name="semicolon" unicode=";" horiz-adv-x="278" 
d="M129 514h20v-98h-20v98zM139 -74q-10 -28 -34 -45v20q13 13 18.5 36t5.5 63v98h20v-98q0 -46 -10 -74z" />
    <glyph glyph-name="less" unicode="&#x3c;" horiz-adv-x="600" 
d="M46 241v24l508 249v-21l-490 -240l490 -240v-21z" />
    <glyph glyph-name="equal" unicode="=" horiz-adv-x="600" 
d="M48 360h504v-20h-504v20zM48 166h504v-20h-504v20z" />
    <glyph glyph-name="greater" unicode="&#x3e;" horiz-adv-x="600" 
d="M46 493v21l508 -249v-24l-508 -249v21l490 240z" />
    <glyph glyph-name="question" unicode="?" horiz-adv-x="500" 
d="M57.5 616.5q25.5 53.5 75.5 84t119 30.5q85 0 141 -44.5t56 -121.5q0 -46 -16 -80.5t-34 -53.5t-48 -45q-40 -39 -60 -65.5t-29.5 -58.5t-9.5 -80h-20q0 67 21 112t77 100q4 4 30 26t47.5 60.5t21.5 84.5q0 69 -49 107.5t-128 38.5q-97 0 -149 -59.5t-48 -158.5h-20
q-3 70 22.5 123.5zM232 98h20v-98h-20v98z" />
    <glyph glyph-name="at" unicode="@" horiz-adv-x="800" 
d="M615 547l-111 -288q-17 -44 -17 -68q0 -39 42 -39t87.5 35.5t76 95.5t30.5 130q0 81 -39.5 144.5t-109 99t-155.5 35.5q-96 0 -174 -45.5t-123 -123.5t-45 -170q0 -109 46.5 -187t124 -118t171.5 -40q88 0 164.5 44t125.5 114h23q-49 -80 -135 -129t-178 -49
q-94 0 -176.5 40t-134 122.5t-51.5 202.5q0 101 49 183.5t132 129t181 46.5q90 0 164 -37.5t117 -106.5t43 -159q0 -73 -33 -137t-83.5 -102t-99.5 -38q-26 0 -43 14.5t-17 37.5q0 7 1 11h-2q-46 -63 -136 -63q-38 0 -69 19.5t-49 52.5t-18 73q0 64 30.5 131.5t85 112.5
t121.5 45q48 0 86.5 -23t50.5 -62h2l24 66h21zM509 525q-37 21 -82 21q-60 0 -108.5 -42.5t-76.5 -106t-28 -120.5q0 -54 34 -89.5t86 -35.5q47 0 88 27t66 93l71 184q-13 48 -50 69z" />
    <glyph glyph-name="A" unicode="A" horiz-adv-x="1538" 
d="M1174 579v-457h320v-122h-663v122h321v186h-179q-29 1 -127 1q-296 0 -469 -24q-175 -24 -247 -64q-74 -41 -89 -95l-1 -3v-1v1v0q1 178 128 309q128 131 343 200q216 68 473 68h514v-121h-324zM1152 579h-179q-416 0 -622 -103q-208 -103 -259 -205q-49 -93 -52 -146
q7 94 126 159q123 67 336 102q213 33 482 33h168v160zM40 123zM383 122v-122h-343v122h343z" />
    <glyph glyph-name="B" unicode="B" horiz-adv-x="1387" 
d="M75 271q-50 -96 -52 -149q2 179 128 310q128 131 343 200q216 68 473 68h190v-121h-201q-416 0 -622 -103q-208 -103 -259 -205zM1136 540q19 27 21 39q0 -101 -65 -161q5 0 13 -2q103 -21 168 -90q64 -68 64 -204q-1 18 -15 56q-17 39 -77 82q-61 41 -185 49
q-56 4 -293 4h-243v121q90 0 130 1l62 1q66 1 144 5q125 8 189 38q67 32 87 61zM1337 122v-122h-1314v122h1314z" />
    <glyph glyph-name="C" unicode="C" horiz-adv-x="1180" 
d="M1157 578h-1134v122h1134v-122zM151 269q-126 130 -128 309q2 -53 52 -149q51 -102 259 -205q206 -103 622 -103h201v-121h-190q-258 0 -473 69q-215 67 -343 200z" />
    <glyph glyph-name="D" unicode="D" horiz-adv-x="1431" 
d="M590 122q318 0 496 32q176 31 240 78q65 47 84 105l1 3v-1q-1 -105 -99 -180q-98 -77 -292 -117q-195 -42 -483 -42h-510v122h320v457h-324v121h514q286 0 483 -41q194 -42 292 -117q98 -77 99 -181v-1l-1 3q-11 59 -76 106q-66 47 -244 78q-181 32 -500 32h-221v-457
h221z" />
    <glyph glyph-name="E" unicode="E" horiz-adv-x="1483" 
d="M198 578h-178v122h167q257 0 468 -44q206 -45 335 -146q126 -100 126 -261q0 37 -47 110q-48 73 -252 146q-203 73 -619 73zM221 159q-18 -25 -21 -38q1 101 66 160l-14 3q-102 19 -167 90q-65 70 -65 204q2 -20 16 -56q15 -39 77 -82q60 -42 184 -50q56 -4 293 -4h263
v-121q-104 0 -150 -1l-50 -1q-111 -2 -156 -5q-125 -8 -189 -38q-67 -32 -87 -61zM1483 441q0 -151 -125 -252q-124 -100 -354 -147q-206 -43 -637 -43h-167v122h178q591 0 803 65q135 42 203 99q66 55 83 98q16 39 16 58z" />
    <glyph glyph-name="F" unicode="F" horiz-adv-x="1473" 
d="M1473 249q0 37 -47 110q-48 73 -252 146q-203 73 -619 73h-178v-457h328v-121h-675v121h324v457h-320v122h510q257 0 468 -44q206 -45 335 -146q126 -100 126 -261zM442 374q-65 70 -65 204q2 -20 16 -56q15 -39 77 -82q60 -42 184 -50q73 -4 185 -5h29q142 -2 192 -2
v-121h-190q-160 2 -261 22q-102 19 -167 90z" />
    <glyph glyph-name="G" unicode="G" horiz-adv-x="1338" 
d="M75 271q-50 -96 -52 -149q2 179 128 310q128 131 343 200q216 68 473 68h190v-121h-201q-416 0 -622 -103q-208 -103 -259 -205zM1315 419v-111h-129q-18 0 -29 1v-309h-1134v122h1112v187h-90q-296 0 -459 -22q-167 -22 -240 -62q-72 -40 -92 -99l-1 -3v1q8 91 132 159
q126 67 336 101q215 35 476 35h118z" />
    <glyph glyph-name="H" unicode="H" horiz-adv-x="1854" 
d="M888 243q46 -92 46 -256q0 36 -23 105q-22 66 -124 136q-102 69 -309 69l-109 1v-176h319v-122h-661v122h320v457h-324v121h667v-122h-321v-159h59q196 0 305 -42q108 -41 155 -134zM1824 0h-686v122h343v176l-91 -1q-207 0 -308 -69q-103 -70 -125 -136
q-23 -69 -23 -105q0 164 46 256q47 92 156 134q110 42 304 42h41v159h-343v122h682v-121h-317v-457h321v-122z" />
    <glyph glyph-name="I" unicode="I" horiz-adv-x="710" 
d="M696 0h-676v121h325v457h-321v122h663v-122h-320v-457h329v-121z" />
    <glyph glyph-name="J" unicode="J" horiz-adv-x="964" 
d="M930 122v-122h-401q-194 0 -304 42q-109 42 -156 135q-44 89 -46 249v121h8q142 0 228 -42q87 -44 127 -137t41 -245q17 -1 52 -1l109 -1v457h-321v122h667v-121h-324v-457h320zM427 123q-1 35 -17 97q-16 66 -94 136q-77 69 -235 69h-26q-3 1 -32 1q1 -35 23 -98
q23 -68 125 -137q88 -60 256 -68z" />
    <glyph glyph-name="K" unicode="K" horiz-adv-x="1925" 
d="M369 122h162q112 0 169 -1v-122h-675v122q56 1 168 1h155v455h-321v122h2v1h248h87h7h162q112 0 169 -1v-122h-333v-455zM1467 577h-395v122l197 1l198 -1v-122zM370 413l-1 -2q4 78 41 113t117 35q73 0 186 -25q103 -23 304 -80q128 -36 230 -36q103 0 161 40
q57 39 59 119q-2 -118 -64 -195q-65 -80 -206 -80q-87 0 -199 34q-405 122 -544 122q-45 0 -61 -10q-17 -11 -22 -28q-1 -3 -1 -7zM369 411v-1v1zM1905 -10q-5 33 -17 55q-13 25 -77 54q-67 30 -194 40q-113 9 -210 10q-150 2 -367 2h-178q-148 0 -257 20q-107 20 -171 76
q-65 56 -65 162q0 -14 16 -39q16 -27 77 -55q62 -29 184 -36l57 -3q178 -11 269 -11h250q240 0 372 -16q135 -16 219 -76q83 -60 92 -183z" />
    <glyph glyph-name="L" unicode="L" horiz-adv-x="954" 
d="M934 432q0 -164 -46 -255q-47 -93 -155 -135q-109 -42 -305 -42h-401v122h320v457h-324v121h667v-122h-321v-457l109 1q207 0 309 69q102 70 124 137q23 69 23 104z" />
    <glyph glyph-name="M" unicode="M" horiz-adv-x="1827" 
d="M888 524q46 -92 46 -256q0 36 -23 105q-22 66 -124 136q-102 69 -309 69l-109 1v-457h321v-122h-663v122h320v457h-324v121h405q196 0 305 -42q108 -41 155 -134zM1824 0h-686v122h343v457l-91 -1q-207 0 -308 -69q-103 -70 -125 -136q-19 -59 -22 -91q9 157 53 243
q47 92 153 134q108 41 299 41h380v-121h-317v-457h321v-122zM934 268q0 9 1 14q-1 -5 -1 -14z" />
    <glyph glyph-name="N" unicode="N" horiz-adv-x="1881" 
d="M1354 432q125 -130 127 -310q-2 52 -51 149q-52 102 -259 205t-623 103h-179v-457h321v-122h-663v122h320v457h-324v121h514q256 0 474 -68q215 -69 343 -200zM1503 579v-457h321v-122h-686v122h343v578h346v-121h-324z" />
    <glyph glyph-name="O" unicode="O" horiz-adv-x="1218" 
d="M1195 578q-4 -280 -172 -427q-172 -151 -542 -151h-458v121q5 281 172 428q172 151 542 151h115h9h334v-122zM1195 578h-469q-325 0 -481 -105t-189 -205q-28 -88 -33 -147h469q325 0 481 105t189 206q29 89 33 146z" />
    <glyph glyph-name="P" unicode="P" horiz-adv-x="1499" 
d="M1474 258v-121h-168q-258 0 -467 45q-207 43 -335 145q-124 97 -127 252h-2v-457h162q112 0 169 -1v-122h-675v122q56 1 168 1h155v457h-319v121h509q257 0 468 -44q209 -45 336 -145q123 -97 126 -253q-4 37 -48 102q-48 73 -252 146q-203 73 -619 73h-177
q4 -35 47 -101q47 -72 251 -146q205 -74 619 -74h179z" />
    <glyph glyph-name="Q" unicode="Q" horiz-adv-x="1430" 
d="M1410 -67q0 37 -47 110q-48 73 -252 146q-13 5 -41 13q-21 -25 -50 -51q-172 -151 -542 -151h-458v121q5 281 172 428q172 151 542 151h115h9h334v-122q-3 -172 -66 -293q92 -38 158 -91q126 -100 126 -261zM492 262h-88v121h77q257 0 468 -44q66 -14 122 -33
q66 62 88 126q29 89 33 146h-469q-325 0 -481 -105t-189 -205q-28 -89 -33 -147h469q325 0 481 105q-186 36 -478 36z" />
    <glyph glyph-name="R" unicode="R" horiz-adv-x="1981" 
d="M1968 0q0 14 -15 39q-18 28 -77 55q-61 28 -185 36q-97 7 -326 7h-57q-258 0 -467 45q-207 43 -335 145q-124 97 -127 251v-457h328v-121h-675v121h324v457h-320v122h510q257 0 468 -44q206 -45 335 -146q123 -97 126 -252q157 -2 258 -20q104 -19 170 -76
q65 -57 65 -162zM1428 359q-48 73 -252 146q-203 73 -619 73h-177q4 -35 47 -101q46 -71 251 -145t619 -74h177q-4 34 -46 101z" />
    <glyph glyph-name="S" unicode="S" horiz-adv-x="1632" 
d="M513 326q-151 2 -254 21q-107 20 -171 76q-63 54 -65 155v122l352 1q191 0 297 -16q109 -17 170 -70q62 -56 62 -168q0 12 -20 41q-22 30 -94 58q-74 29 -215 30q-35 0 -43 1q-56 1 -331 1h-177q2 -12 15 -33q16 -27 77 -55q62 -29 184 -36q115 -7 326 -7h57
q291 0 483 -22q193 -22 320 -94q123 -71 123 -209q-2 35 -57 80q-57 43 -260 84q-200 40 -598 40h-181zM1609 122v-122h-167q-248 0 -457 40q-212 41 -341 114q-130 74 -131 172q2 -25 48 -67q46 -44 251 -91q202 -46 619 -46h178z" />
    <glyph glyph-name="T" unicode="T" horiz-adv-x="1640" 
d="M1620 290q0 33 -35 97q-35 63 -189 127q-153 64 -469 64h-85v-457h329v-121h-676v121h325v457h-107q-316 0 -469 -64q-154 -64 -189 -127q-35 -64 -35 -97q0 170 141 261q141 92 306 120q166 29 277 29h30q12 0 23 1q18 0 23 -1q5 1 23 1q11 -1 23 -1h30q110 0 278 -29
q164 -29 305 -120t141 -261z" />
    <glyph glyph-name="U" unicode="U" horiz-adv-x="1511" 
d="M1481 0h-514q-256 0 -472 71t-344 206q-122 128 -128 301v122h343v-122h-342q6 -50 51 -142q51 -105 259 -210q207 -105 622 -105h179v457h-321v122h663v-122h-320v-457h324v-121z" />
    <glyph glyph-name="V" unicode="V" horiz-adv-x="1520" 
d="M1481 578q-6 -173 -128 -301q-128 -135 -343 -206q-218 -71 -473 -71h-514v121h324v457h-320v122h663v-122h-321v-457h179q414 0 623 105q206 105 259 210q44 93 50 142h-342v122h343v-122z" />
    <glyph glyph-name="W" unicode="W" horiz-adv-x="1828" 
d="M911 328q23 69 23 104q0 -164 -46 -255q-47 -93 -155 -135q-109 -42 -305 -42h-401v122h320v457h-324v121h667v-122h-321v-457l109 1q207 0 309 69q102 70 124 137zM1824 0h-384q-194 0 -304 42q-109 42 -156 135q-46 91 -46 255q0 -35 23 -104q23 -68 125 -137
q101 -69 308 -69l91 -1v457h-343v122h682v-121h-317v-457h321v-122z" />
    <glyph glyph-name="X" unicode="X" horiz-adv-x="1481" 
d="M863 539q84 -52 144 -115q122 -130 128 -302h341v-122h-685v122h343q-6 49 -50 142q-53 105 -259 210q-28 15 -75 32q-48 -19 -74 -32q-208 -105 -259 -210q-45 -92 -51 -142h343v-122h-686v122h342q6 172 128 302q60 63 144 115q-175 40 -435 40h-179v121h168
q255 0 473 -71q41 -14 86 -32q50 20 87 32q216 71 472 71h168v-121h-179q-260 0 -435 -40z" />
    <glyph glyph-name="Y" unicode="Y" horiz-adv-x="1497" 
d="M1298 579q-415 0 -622 -105q-208 -105 -259 -210q-45 -92 -51 -142h685v-122h-686v122q5 125 70 228q71 108 198 186q-185 43 -431 43h-179v121h168q151 0 297 -27q143 -26 262 -77q118 51 262 78q145 26 297 26h168v-121h-179z" />
    <glyph glyph-name="Z" unicode="Z" horiz-adv-x="1636" 
d="M1606 700v-122q-2 -101 -65 -155q-64 -56 -170 -76q-105 -20 -255 -21h-181q-398 0 -598 -40q-204 -41 -259 -84q-56 -45 -58 -80q0 139 124 209q125 72 320 94q192 22 482 22h57q211 0 326 7q124 8 185 36q59 27 77 55q13 22 14 33h-177q-275 0 -331 -1q-8 -1 -43 -1
q-141 -1 -215 -30q-73 -28 -93 -58q-21 -28 -21 -41q0 112 62 168q61 53 171 70q105 16 296 16zM1116 326q-1 -98 -131 -172q-129 -73 -341 -114q-209 -40 -457 -40h-167v122h178q417 0 619 46q205 47 252 91q45 42 47 67z" />
    <glyph glyph-name="bracketleft" unicode="[" horiz-adv-x="222" 
d="M209 711h-93v-868h93v-20h-113v908h113v-20z" />
    <glyph glyph-name="backslash" unicode="\" horiz-adv-x="333" 
d="M-7 731h20l327 -748h-20z" />
    <glyph glyph-name="bracketright" unicode="]" horiz-adv-x="222" 
d="M13 -157h93v868h-93v20h113v-908h-113v20z" />
    <glyph glyph-name="asciicircum" unicode="^" horiz-adv-x="600" 
d="M521 227l-221 433l-221 -433h-20l231 453h20l231 -453h-20z" />
    <glyph glyph-name="underscore" unicode="_" horiz-adv-x="500" 
d="M0 -75h500v-50h-500v50z" />
    <glyph glyph-name="grave" unicode="`" 
d="M-9 731l125 -144h-15l-139 144h29z" />
    <glyph glyph-name="a" unicode="a" horiz-adv-x="1184" 
 />
    <glyph glyph-name="b" unicode="b" horiz-adv-x="1194" 
 />
    <glyph glyph-name="c" unicode="c" horiz-adv-x="1173" 
 />
    <glyph glyph-name="d" unicode="d" horiz-adv-x="1173" 
 />
    <glyph glyph-name="e" unicode="e" horiz-adv-x="1497" 
 />
    <glyph glyph-name="f" unicode="f" horiz-adv-x="1542" 
 />
    <glyph glyph-name="g" unicode="g" horiz-adv-x="1194" 
 />
    <glyph glyph-name="h" unicode="h" horiz-adv-x="1193" 
 />
    <glyph glyph-name="i" unicode="i" horiz-adv-x="766" 
 />
    <glyph glyph-name="j" unicode="j" horiz-adv-x="786" 
 />
    <glyph glyph-name="k" unicode="k" horiz-adv-x="1590" 
 />
    <glyph glyph-name="l" unicode="l" horiz-adv-x="600" 
 />
    <glyph glyph-name="m" unicode="m" horiz-adv-x="2532" 
 />
    <glyph glyph-name="n" unicode="n" horiz-adv-x="1511" 
 />
    <glyph glyph-name="o" unicode="o" horiz-adv-x="1192" 
 />
    <glyph glyph-name="p" unicode="p" horiz-adv-x="1192" 
 />
    <glyph glyph-name="q" unicode="q" horiz-adv-x="1192" 
 />
    <glyph glyph-name="r" unicode="r" horiz-adv-x="1100" 
 />
    <glyph glyph-name="s" unicode="s" horiz-adv-x="1683" 
 />
    <glyph glyph-name="t" unicode="t" horiz-adv-x="2254" 
 />
    <glyph glyph-name="u" unicode="u" horiz-adv-x="1234" 
 />
    <glyph glyph-name="v" unicode="v" horiz-adv-x="1216" 
 />
    <glyph glyph-name="w" unicode="w" horiz-adv-x="2400" 
 />
    <glyph glyph-name="x" unicode="x" horiz-adv-x="1696" 
 />
    <glyph glyph-name="y" unicode="y" horiz-adv-x="1694" 
 />
    <glyph glyph-name="z" unicode="z" horiz-adv-x="1686" 
 />
    <glyph glyph-name="braceleft" unicode="{" horiz-adv-x="333" 
d="M173 -151q-16 26 -16 85v163q0 66 -15 106t-57 67v20q31 5 51.5 54.5t20.5 112.5v165q0 59 16 84t57 25h50v-20h-48q-30 0 -42.5 -23t-12.5 -84v-164q0 -51 -18.5 -99t-53.5 -63q33 -16 52.5 -61t19.5 -103v-162q0 -64 12.5 -86.5t42.5 -22.5h48v-20h-50q-41 0 -57 26z
" />
    <glyph glyph-name="bar" unicode="|" horiz-adv-x="222" 
d="M101 786h20v-1000h-20v1000z" />
    <glyph glyph-name="braceright" unicode="}" horiz-adv-x="333" 
d="M160 705q16 -26 16 -85v-163q0 -66 15 -106t57 -67v-20q-31 -5 -51.5 -54.5t-20.5 -112.5v-165q0 -59 -16 -84t-57 -25h-50v20h48q30 0 42.5 23t12.5 84v164q0 51 18.5 99t53.5 63q-33 16 -52.5 61t-19.5 103v162q0 64 -12.5 86.5t-42.5 22.5h-48v20h50q41 0 57 -26z" />
    <glyph glyph-name="asciitilde" unicode="~" horiz-adv-x="600" 
d="M473.5 232q-24.5 -23 -59.5 -23q-17 0 -33.5 5.5t-43.5 17.5l-20 9q-6 3 -28.5 14t-46 17t-47.5 6q-32 0 -55 -19t-43 -54l-20 6q46 87 118 87q24 1 52 -8t65 -26q9 -4 33 -14.5t41 -15.5t29 -5q27 0 46 18.5t42 53.5l20 -6q-25 -40 -49.5 -63z" />
    <glyph glyph-name="exclamdown" unicode="&#xa1;" horiz-adv-x="185" 
d="M103 444h-20v98h20v-98zM103 -177h-20v537h20v-537z" />
    <glyph glyph-name="cent" unicode="&#xa2;" horiz-adv-x="556" 
d="M297 8q73 0 122.5 47t57.5 120h20q-10 -87 -66 -136.5t-139 -50.5v-109h-20v109q-69 2 -117 40t-72 99t-24 131q0 68 24.5 128.5t72.5 98.5t116 40v88h20v-88q81 -2 136 -45t64 -122h-20q-11 71 -59 108t-121 39v-497h5zM165.5 467.5q-43.5 -35.5 -65 -91t-21.5 -118.5
q0 -64 21.5 -120t65 -92t106.5 -38v497q-63 -2 -106.5 -37.5z" />
    <glyph glyph-name="sterling" unicode="&#xa3;" horiz-adv-x="556" 
d="M296 345h-149q30 -53 30 -136q0 -107 -99 -191l2 -2q49 37 102 37q22 0 41.5 -5.5t57.5 -18.5q33 -13 54.5 -19.5t41.5 -6.5q44 0 76.5 19.5t76.5 63.5l13 -14q-43 -49 -81 -69t-85 -20q-22 0 -46 6.5t-54 18.5l-20 7q-27 9 -43 13.5t-32 4.5q-64 0 -125 -50l-18 20
q53 45 85.5 97.5t32.5 108.5q0 38 -8.5 74.5t-23.5 61.5h-76v20h66l-17 33q-25 45 -39 79.5t-14 67.5q0 61 31 103t82.5 62.5t112.5 20.5q106 0 169 -58t63 -158q0 -11 -2 -35h-20q1 10 1 30q0 96 -57.5 148.5t-153.5 52.5q-86 0 -146 -41.5t-60 -124.5q0 -32 13.5 -64.5
t39.5 -79.5q14 -24 20 -36h158v-20z" />
    <glyph glyph-name="currency" unicode="&#xa4;" horiz-adv-x="556" 
d="M517 565l-57 -57q33 -35 49.5 -78t16.5 -90q0 -46 -16.5 -89.5t-49.5 -78.5l57 -57l-14 -14l-57 57q-35 -32 -78 -48.5t-90 -17.5q-46 0 -89.5 17t-78.5 49l-57 -57l-14 14l57 57q-32 35 -49 78.5t-17 89.5q1 47 17.5 90t48.5 78l-57 57l14 14l57 -57q35 33 78.5 49.5
t89.5 16.5t89.5 -16.5t78.5 -49.5l57 57zM475.5 454.5q-30.5 52.5 -83 83t-114.5 30.5q-61 0 -113.5 -31t-83.5 -83.5t-31 -113.5t31 -113.5t83.5 -83.5t113.5 -31t113.5 31t83.5 83.5t31 113.5q0 62 -30.5 114.5z" />
    <glyph glyph-name="yen" unicode="&#xa5;" horiz-adv-x="556" 
d="M434 203v-20h-147v-183h-20v183h-147v20h147v102h-147v20h138l-237 389h22l234 -383h2l234 383h22l-237 -389h136v-20h-147v-102h147z" />
    <glyph glyph-name="brokenbar" unicode="&#xa6;" horiz-adv-x="222" 
d="M121 411h-20v250h20v-250zM101 -89v250h20v-250h-20z" />
    <glyph glyph-name="section" unicode="&#xa7;" horiz-adv-x="556" 
d="M381 667.5q-39 43.5 -112 43.5q-50 0 -93 -26t-43 -83q0 -38 15 -61.5t42 -43.5q25 -18 74 -45q31 -17 61 -36q73 -47 109.5 -79t50.5 -62t14 -71q0 -34 -19.5 -62.5t-47 -47.5t-50.5 -26q33 -27 46 -54t13 -57q0 -71 -47.5 -108.5t-115.5 -37.5q-85 0 -131 51t-44 143
h20q-1 -81 37.5 -127.5t119.5 -46.5q48 0 79.5 18t46.5 44.5t15 51.5q0 29 -5.5 47.5t-22.5 37.5t-52 44q-28 21 -93 60l-83 53q-66 44 -87 80t-21 83q0 45 32.5 84t76.5 55q-24 20 -38.5 46t-14.5 63q0 74 50.5 103.5t107.5 29.5q78 0 124.5 -50.5t46.5 -134.5h-20
q-2 78 -41 121.5zM465.5 267q-13.5 27 -48.5 57.5t-103 74.5q-44 27 -73 43q-49 28 -57 33q-35 -11 -71 -44.5t-36 -88.5q0 -32 19 -65.5t81 -73.5q42 -27 55 -35q98 -61 131 -86q23 5 50 21.5t46.5 42.5t19.5 59q0 35 -13.5 62z" />
    <glyph glyph-name="dieresis" unicode="&#xa8;" 
d="M-23 671h20v-81h-20v81zM133 671h20v-81h-20v81z" />
    <glyph glyph-name="copyright" unicode="&#xa9;" horiz-adv-x="800" 
d="M76 545q50 86 136 136t188 50t188 -50t136 -136t50 -188t-50 -188t-136 -136t-188 -50t-188 50t-136 136t-50 188t50 188zM93.5 179.5q47.5 -81.5 129 -129t177.5 -47.5t177.5 47.5t129 129t47.5 177.5t-47.5 177.5t-129 129t-177.5 47.5t-177.5 -47.5t-129 -129
t-47.5 -177.5t47.5 -177.5zM517.5 525q-46.5 34 -109.5 34q-61 0 -105.5 -27t-68 -74t-23.5 -106t24 -107.5t69.5 -76.5t106.5 -28q57 0 102 36.5t60 99.5h20q-16 -70 -65.5 -113t-116.5 -43q-66 0 -116 30.5t-77 83t-27 117.5q0 66 26 117.5t75 81t116 29.5q73 0 124.5 -40
t60.5 -111h-20q-9 63 -55.5 97z" />
    <glyph glyph-name="guillemotleft" unicode="&#xab;" horiz-adv-x="352" 
d="M66 260v16l103 139v-35l-83 -112l83 -112v-35zM159 260v16l103 139v-35l-83 -112l83 -112v-35z" />
    <glyph glyph-name="logicalnot" unicode="&#xac;" horiz-adv-x="600" 
d="M48 340v20h504v-267h-20v247h-484z" />
    <glyph glyph-name="uni00AD" unicode="&#xad;" horiz-adv-x="333" 
d="M254 278v-20h-175v20h175z" />
    <glyph glyph-name="registered" unicode="&#xae;" horiz-adv-x="800" 
d="M76 545q50 86 136 136t188 50t188 -50t136 -136t50 -188t-50 -188t-136 -136t-188 -50t-188 50t-136 136t-50 188t50 188zM93.5 179.5q47.5 -81.5 129 -129t177.5 -47.5t177.5 47.5t129 129t47.5 177.5t-47.5 177.5t-129 129t-177.5 47.5t-177.5 -47.5t-129 -129
t-47.5 -177.5t47.5 -177.5zM415 565q71 0 106.5 -30t35.5 -86q0 -52 -31.5 -80t-80.5 -32l132 -202h-25l-129 200q-10 -1 -31 -1h-98v-199h-20v430h141zM497 373q40 19 40 76q0 54 -34 75t-90 21h-119v-191h104q59 0 99 19z" />
    <glyph glyph-name="macron" unicode="&#xaf;" 
d="M-51 628v20h232v-20h-232z" />
    <glyph glyph-name="degree" unicode="&#xb0;" horiz-adv-x="400" 
d="M324 476q-19 -33 -51.5 -52.5t-72.5 -19.5q-39 0 -72 19t-52 52.5t-19 73.5q0 38 19 71t52 52.5t72 19.5t72 -19.5t52 -52.5t19 -71q0 -40 -19 -73zM288 636q-35 36 -88 36q-32 0 -60.5 -17.5t-45.5 -45.5t-17 -60q0 -35 17 -63.5t45 -45t61 -16.5q52 0 87.5 36t35.5 89
q0 51 -35 87z" />
    <glyph glyph-name="plusminus" unicode="&#xb1;" horiz-adv-x="600" 
d="M310 506v-198h242v-20h-242v-198h-20v198h-242v20h242v198h20zM552 20v-20h-504v20h504z" />
    <glyph glyph-name="acute" unicode="&#xb4;" 
d="M25 587h-15l132 144h29z" />
    <glyph glyph-name="mu" unicode="&#xb5;" horiz-adv-x="556" 
d="M452 0v127h-2q-14 -62 -63 -100.5t-122 -38.5q-54 0 -96.5 22.5t-63.5 70.5h-2v-258h-20v691h19v-338q0 -84 46 -126t117 -42q59 0 101.5 29.5t64 78.5t21.5 107v291h20v-514h-20z" />
    <glyph glyph-name="paragraph" unicode="&#xb6;" horiz-adv-x="600" 
d="M491 -140h-20v834h-163v-834h-20v468q-64 0 -115 25.5t-79 69.5t-28 95q0 94 58.5 145t164.5 51h202v-854z" />
    <glyph glyph-name="periodcentered" unicode="&#xb7;" horiz-adv-x="278" 
d="M116.5 363q9.5 9 22.5 9q14 0 23 -9t9 -23q0 -13 -9 -22.5t-23 -9.5q-13 0 -22.5 9.5t-9.5 22.5q0 14 9.5 23z" />
    <glyph glyph-name="cedilla" unicode="&#xb8;" 
d="M57 -163q33 0 55.5 12.5t22.5 40.5q0 19 -18 29.5t-37 10.5q-32 0 -54 -13l-15 10l57 73h20l-41 -56q5 1 13.5 3.5t19.5 2.5q32 0 53.5 -14.5t21.5 -45.5q0 -41 -26.5 -57t-71.5 -16q-30 0 -54 8t-28 9l9 19q46 -16 73 -16z" />
    <glyph glyph-name="guillemotright" unicode="&#xbb;" horiz-adv-x="352" 
d="M193 276v-16l-103 -139v35l83 112l-83 112v35zM286 276v-16l-103 -139v35l83 112l-83 112v35z" />
    <glyph glyph-name="questiondown" unicode="&#xbf;" horiz-adv-x="500" 
d="M268 444h-20v98h20v-98zM442.5 -74.5q-25.5 -53.5 -75.5 -84t-119 -30.5q-85 0 -141 44.5t-56 121.5q0 46 16 80.5t34 53.5t47 45q40 39 60 65.5t29.5 58.5t9.5 80h20q0 -67 -21 -112t-77 -100q-4 -4 -30 -25.5t-47 -60.5t-21 -85q0 -69 49 -107.5t128 -38.5
q97 0 149 59.5t48 158.5h20q3 -70 -22.5 -123.5z" />
    <glyph glyph-name="AE" unicode="&#xc6;" horiz-adv-x="1538" 
d="M561 797q0 26 19 45q18 18 44 18q25 0 45 -18q18 -19 18 -45t-18 -44q-19 -19 -45 -19t-44 19q-19 18 -19 44zM740 797q0 26 19 45q18 18 44 18t45 -18q18 -20 18 -45q0 -26 -18 -44q-19 -19 -45 -19t-44 19q-19 18 -19 44zM1174 579v-457h320v-122h-663v122h321v186
h-179q-29 1 -127 1q-296 0 -469 -24q-175 -24 -247 -64q-74 -41 -89 -95l-1 -3v-1v1v0q1 178 128 309q128 131 343 200q216 68 473 68h514v-121h-324zM1152 579h-179q-416 0 -622 -103q-208 -103 -259 -205q-49 -93 -52 -146q7 94 126 159q123 67 336 102q213 33 482 33h168
v160zM40 123zM383 122v-122h-343v122h343z" />
    <glyph glyph-name="multiply" unicode="&#xd7;" horiz-adv-x="600" 
d="M110 456l189 -191l191 191l14 -13l-191 -190l191 -190l-14 -14l-191 191l-189 -191l-14 14l190 190l-190 190z" />
    <glyph glyph-name="Udieresis" unicode="&#xdc;" horiz-adv-x="1511" 
d="M436 797q0 26 19 45q18 18 44 18t45 -18q18 -19 18 -45t-18 -44q-19 -19 -45 -19t-44 19q-19 18 -19 44zM615 797q0 26 19 45q18 18 44 18t45 -18q18 -19 18 -45t-18 -44q-19 -19 -45 -19t-44 19q-19 18 -19 44zM1481 0h-514q-256 0 -472 71t-344 206q-122 128 -128 301
v122h343v-122h-342q6 -50 51 -142q51 -105 259 -210q207 -105 622 -105h179v457h-321v122h663v-122h-320v-457h324v-121z" />
    <glyph glyph-name="divide" unicode="&#xf7;" horiz-adv-x="600" 
d="M269 435.5q-10 11.5 -10 29.5t12 29.5t29 11.5t29 -12t12 -29q0 -19 -10 -30t-31 -11t-31 11.5zM48 263h504v-20h-504v20zM269 11.5q-10 11.5 -10 29.5t12 29.5t29 11.5t29 -12t12 -29q0 -19 -10 -30t-31 -11t-31 11.5z" />
    <glyph glyph-name="OE" unicode="&#x152;" horiz-adv-x="1218" 
d="M486 797q0 26 19 45q18 18 44 18t45 -18q18 -19 18 -45t-18 -44q-19 -19 -45 -19t-44 19q-19 18 -19 44zM665 797q0 26 19 45q18 18 44 18q25 0 45 -18q18 -20 18 -45q0 -26 -18 -44q-19 -19 -45 -19t-44 19q-19 18 -19 44zM1195 578q-4 -280 -172 -427
q-172 -151 -542 -151h-458v121q5 281 172 428q172 151 542 151h115h9h334v-122zM1195 578h-469q-325 0 -481 -105t-189 -205q-28 -88 -33 -147h469q325 0 481 105t189 206q29 89 33 146z" />
    <glyph glyph-name="florin" unicode="&#x192;" horiz-adv-x="556" 
d="M148 -142.5q-31 -34.5 -85 -34.5q-31 0 -50 6l5 20q21 -6 42 -6q47 0 72.5 28t35.5 78l91 462h-119l4 20h119l39 195q21 105 132 105q31 0 55 -7l-4 -19q-32 6 -53 6q-47 0 -73 -21.5t-37 -74.5l-37 -184h127l-4 -20h-127l-92 -466q-10 -53 -41 -87.5z" />
    <glyph glyph-name="circumflex" unicode="&#x2c6;" 
d="M63 715l-99 -123h-20l113 139h15l114 -139h-20z" />
    <glyph glyph-name="caron" unicode="&#x2c7;" 
d="M67 608l99 123h20l-113 -139h-15l-114 139h20z" />
    <glyph glyph-name="uni02C9" unicode="&#x2c9;" 
d="M-51 628v20h232v-20h-232z" />
    <glyph glyph-name="breve" unicode="&#x2d8;" 
d="M-5.5 668q27.5 -24 67.5 -24q44 0 73 22t33 65h20q-6 -50 -40 -78.5t-86 -28.5q-48 0 -81 29.5t-39 77.5h20q5 -39 32.5 -63z" />
    <glyph glyph-name="dotaccent" unicode="&#x2d9;" 
d="M75 590h-20v81h20v-81z" />
    <glyph glyph-name="ring" unicode="&#x2da;" 
d="M127 612q-26 -26 -62 -26q-35 0 -61.5 26t-26.5 62q0 35 26.5 61.5t61.5 26.5t61.5 -26.5t26.5 -61.5q0 -36 -26 -62zM113 722q-20 20 -48 20t-48 -20t-20 -48t20 -48t48 -20t48 20t20 48t-20 48z" />
    <glyph glyph-name="ogonek" unicode="&#x2db;" 
d="M28.5 -72.5q-24.5 -28.5 -24.5 -53.5q0 -17 14.5 -30t40.5 -13q50 0 77 31l17 -12q-35 -39 -94 -39q-35 0 -55 18.5t-20 43.5q0 33 26.5 63.5t70.5 63.5h29q-57 -44 -81.5 -72.5z" />
    <glyph glyph-name="tilde" unicode="&#x2dc;" 
d="M-46 655.5q21 25.5 47 25.5q16 0 31 -8t38 -23q19 -14 32 -20.5t26 -6.5q22 0 35.5 16.5t13.5 38.5h20q0 -31 -18 -53t-51 -22q-17 0 -32.5 8t-35.5 23q-18 13 -31.5 20t-27.5 7q-20 0 -34 -19.5t-14 -39.5h-20q0 28 21 53.5z" />
    <glyph glyph-name="hungarumlaut" unicode="&#x2dd;" 
d="M-30 587h-15l132 144h29zM120 587h-15l132 144h29z" />
    <glyph glyph-name="endash" unicode="&#x2013;" horiz-adv-x="500" 
d="M500 278v-20h-500v20h500z" />
    <glyph glyph-name="emdash" unicode="&#x2014;" horiz-adv-x="1000" 
d="M130 258v20h740v-20h-740z" />
    <glyph glyph-name="quoteleft" unicode="&#x2018;" horiz-adv-x="167" 
d="M73 607q0 52 9 72t36 35v-20q-15 -9 -20 -28.5t-5 -58.5v-118h-20v118z" />
    <glyph glyph-name="quoteright" unicode="&#x2019;" horiz-adv-x="167" 
d="M94 596q0 -52 -9 -72t-36 -35v20q15 9 20 28.5t5 58.5v118h20v-118z" />
    <glyph glyph-name="quotesinglbase" unicode="&#x201a;" horiz-adv-x="167" 
d="M93 0q0 -46 -10 -74t-35 -45v20q13 13 19 35.5t6 63.5v98h20v-98z" />
    <glyph glyph-name="quotedblleft" unicode="&#x201c;" horiz-adv-x="278" 
d="M83 607q0 52 9 72t36 35v-20q-15 -9 -20 -28.5t-5 -58.5v-118h-20v118zM183 607q0 52 9 72t36 35v-20q-15 -9 -20 -28.5t-5 -58.5v-118h-20v118z" />
    <glyph glyph-name="quotedblright" unicode="&#x201d;" horiz-adv-x="278" 
d="M95 596q0 -52 -9 -72t-36 -35v20q15 9 20 28.5t5 58.5v118h20v-118zM195 596q0 -52 -9 -72t-36 -35v20q15 9 20 28.5t5 58.5v118h20v-118z" />
    <glyph glyph-name="quotedblbase" unicode="&#x201e;" horiz-adv-x="278" 
d="M95 0q0 -46 -10 -74t-35 -45v20q13 13 19 35.5t6 63.5v98h20v-98zM195 0q0 -46 -10 -74t-35 -45v20q13 13 19 35.5t6 63.5v98h20v-98z" />
    <glyph glyph-name="dagger" unicode="&#x2020;" horiz-adv-x="556" 
d="M288 471h208v-20h-208v-591h-20v591h-208v20h208v243h20v-243z" />
    <glyph glyph-name="daggerdbl" unicode="&#x2021;" horiz-adv-x="556" 
d="M60 77h208v420h-208v20h208v197h20v-197h208v-20h-208v-420h208v-20h-208v-197h-20v197h-208v20z" />
    <glyph glyph-name="bullet" unicode="&#x2022;" horiz-adv-x="500" 
d="M96 446.5q24 40.5 64.5 64.5t89.5 24t90 -24t65 -64.5t24 -89.5t-24 -90t-65 -65t-90 -24t-89.5 24t-64.5 65t-24 90t24 89.5z" />
    <glyph glyph-name="ellipsis" unicode="&#x2026;" horiz-adv-x="1000" 
d="M157 0v98h20v-98h-20zM490 0v98h20v-98h-20zM823 0v98h20v-98h-20z" />
    <glyph glyph-name="perthousand" unicode="&#x2030;" horiz-adv-x="1037" 
d="M588 714l-476 -748h-23l476 748h23zM61.5 644q40.5 48 111.5 48q74 0 114.5 -47.5t40.5 -124.5q0 -72 -41.5 -121t-113.5 -49q-74 0 -113 49t-39 120q0 77 40.5 125zM75 412.5q34 -42.5 98 -42.5t99.5 43t35.5 106q0 71 -34 112t-101 41q-66 0 -99 -41.5t-33 -111.5
q0 -64 34 -106.5zM389.5 282q40.5 48 111.5 48q74 0 114.5 -47.5t40.5 -124.5q0 -72 -41.5 -121t-113.5 -49q-74 0 -113 49t-39 120q0 77 40.5 125zM749.5 282q40.5 48 111.5 48q74 0 114.5 -47.5t40.5 -124.5q0 -72 -41.5 -121t-113.5 -49q-74 0 -113 49t-39 120
q0 77 40.5 125zM403 50.5q34 -42.5 98 -42.5t99.5 43t35.5 106q0 71 -34 112t-101 41q-66 0 -99 -41.5t-33 -111.5q0 -64 34 -106.5zM763 50.5q34 -42.5 98 -42.5t99.5 43t35.5 106q0 71 -34 112t-101 41q-66 0 -99 -41.5t-33 -111.5q0 -64 34 -106.5z" />
    <glyph glyph-name="guilsinglleft" unicode="&#x2039;" horiz-adv-x="259" 
d="M66 260v16l103 139v-35l-83 -112l83 -112v-35z" />
    <glyph glyph-name="guilsinglright" unicode="&#x203a;" horiz-adv-x="259" 
d="M193 276v-16l-103 -139v35l83 112l-83 112v35z" />
    <glyph glyph-name="fraction" unicode="&#x2044;" horiz-adv-x="167" 
d="M333 714l-476 -748h-23l476 748h23z" />
    <glyph glyph-name="Euro" unicode="&#x20ac;" horiz-adv-x="556" 
d="M357 -15q-81 0 -143.5 37.5t-101.5 102t-51 144.5h-61l7 17h53q-2 14 -2 21v21q0 20 2 58h-60l7 17h55q11 83 49.5 149.5t103.5 104.5t149 38q53 0 98 -16.5t88 -49.5l-9 -16q-43 33 -84.5 48.5t-93.5 15.5q-78 0 -138.5 -36t-96.5 -98.5t-46 -139.5h407l-9 -17h-400
q-2 -32 -2 -48q0 -26 3 -52h378l-9 -17h-367q12 -75 48.5 -135t94.5 -95.5t134 -35.5q125 0 207 97v-27q-87 -88 -210 -88z" />
    <glyph glyph-name="afii61289" unicode="&#x2113;" horiz-adv-x="460" 
d="M264 -6q-77 0 -115 55.5t-38 139.5v14l-62 -52l-15 23l29 25q28 23 48 43v285q0 121 39.5 171.5t92.5 50.5q54 0 82.5 -41t28.5 -105q0 -91 -56 -183t-159 -192v-24q0 -95 37 -140.5t91 -45.5q48 0 86 30.5t58 71.5l22 -13q-62 -113 -169 -113zM277.5 437.5
q48.5 77.5 48.5 159.5q0 58 -21 91.5t-66 33.5q-24 0 -47 -19t-38 -61t-15 -107v-270q90 95 138.5 172.5z" />
    <glyph glyph-name="trademark" unicode="&#x2122;" horiz-adv-x="990" 
d="M82 694v20h320v-20h-150v-392h-20v392h-150zM530 714l162 -384l162 384h34v-412h-20v392h-2l-164 -392h-20l-164 392h-2v-392h-20v412h34z" />
    <glyph glyph-name="Omega" unicode="&#x2126;" horiz-adv-x="734" 
d="M114 166.5q-41 83.5 -41 187.5q0 101 40 177t108 117t149 41q83 0 149.5 -44t104 -120t37.5 -168q0 -108 -43.5 -194.5t-105.5 -133.5v-2h163v-27h-221v20q73 46 124.5 134.5t51.5 199.5q0 71 -30.5 143t-89.5 119t-141 47q-79 0 -139 -42t-93 -112.5t-33 -154.5
q0 -72 25 -138.5t65 -117t85 -78.5v-20h-220v27h161v2q-65 54 -106 137.5z" />
    <glyph glyph-name="estimated" unicode="&#x212e;" horiz-adv-x="849" 
d="M177 326v-192q0 -11 8 -22q47 -49 109 -76.5t130 -27.5q74 0 139.5 31t112.5 86h57q-54 -63 -135.5 -99.5t-174.5 -36.5q-106 0 -195.5 47t-142 128t-52.5 176t52.5 176t142 128.5t195.5 47.5q107 0 197 -47.5t142.5 -128.5t52.5 -176v-10h-633q-5 0 -5 -4zM662 571
q-48 47 -109 73.5t-129 26.5q-67 0 -129 -27.5t-109 -75.5q-9 -10 -9 -24v-189q0 -2 1.5 -4t3.5 -2h485q4 0 4 6v193q0 13 -9 23z" />
    <glyph glyph-name="partialdiff" unicode="&#x2202;" horiz-adv-x="523" 
d="M236 756q61 0 114 -40.5t86 -123t33 -201.5q0 -109 -26.5 -200t-81.5 -145t-135 -54q-59 0 -99.5 30.5t-60.5 80.5t-20 109q0 71 29.5 126.5t77.5 85.5t102 30q47 0 85 -19t62.5 -44.5t34.5 -46.5h1q2 15 2 53q0 102 -29 177.5t-76 115.5t-99 40q-78 0 -135 -47l-18 20
q64 53 153 53zM326 54.5q43 37.5 70 101.5t35 142q-10 29 -34.5 59t-61 50.5t-79.5 20.5q-47 0 -88 -28.5t-65.5 -77t-24.5 -106.5q0 -87 41 -143t108 -56h1q55 0 98 37.5z" />
    <glyph glyph-name="Delta" unicode="&#x2206;" horiz-adv-x="643" 
d="M305 699h33l270 -667v-32h-573v32zM398 470l-30 72q-38 90 -46 116h-4q-5 -19 -20 -54.5t-19 -46.5q-5 -13 -12.5 -31t-15.5 -39l-186 -461h509z" />
    <glyph glyph-name="product" unicode="&#x220f;" horiz-adv-x="682" 
d="M537 -94h-29v744h-335v-744h-29v744h-117v28h627v-28h-117v-744z" />
    <glyph glyph-name="summation" unicode="&#x2211;" horiz-adv-x="550" 
d="M22 -71l292 361l-277 366v22h473v-28h-426v-4l268 -354l-285 -352v-3h457v-31h-502v23z" />
    <glyph glyph-name="minus" unicode="&#x2212;" horiz-adv-x="600" 
d="M48 263h504v-20h-504v20z" />
    <glyph glyph-name="uni2215" unicode="&#x2215;" horiz-adv-x="167" 
d="M333 714l-476 -748h-23l476 748h23z" />
    <glyph glyph-name="uni2219" unicode="&#x2219;" horiz-adv-x="278" 
d="M116.5 363q9.5 9 22.5 9q14 0 23 -9t9 -23q0 -13 -9 -22.5t-23 -9.5q-13 0 -22.5 9.5t-9.5 22.5q0 14 9.5 23z" />
    <glyph glyph-name="radical" unicode="&#x221a;" horiz-adv-x="551" 
d="M290 -152l-169 471l-75 -27l-10 24l107 40l148 -409l15 -58h1q1 9 3 17t3 14q4 16 5 23l200 856h28l-220 -951h-36z" />
    <glyph glyph-name="infinity" unicode="&#x221e;" horiz-adv-x="770" 
d="M697 206.5q-20 -33.5 -53.5 -52t-71.5 -18.5q-29 0 -55.5 13t-50 33.5t-64.5 60.5l-16 16q-41 -44 -64 -66t-56 -39.5t-71 -17.5q-39 0 -71.5 19.5t-51.5 53t-19 71.5q0 41 19 74t53 52.5t76 19.5q35 0 67 -18t58 -42.5t64 -65.5q42 46 66 69.5t55.5 40t68.5 16.5
q63 0 100 -40t37 -103v-1q0 -42 -20 -75.5zM272 188q33 24 73 66l25 25q-35 40 -57.5 62.5t-54 40t-67.5 17.5q-49 0 -77.5 -36t-28.5 -85t31.5 -81.5t82.5 -32.5h2q38 0 71 24zM505 375q-33 -24 -75 -67q-17 -19 -25 -26q49 -49 72 -70t48 -34.5t52 -13.5q49 0 79 35t30 81
q0 57 -31 88t-78 31h-1q-38 0 -71 -24z" />
    <glyph glyph-name="integral" unicode="&#x222b;" horiz-adv-x="323" 
d="M283.5 790.5q-11.5 3.5 -21.5 3.5q-13 0 -27 -5t-24 -16q-21 -24 -30 -66t-9 -117q0 -73 6 -255q6 -178 6 -251q0 -139 -48 -197q-13 -15 -32.5 -24.5t-40.5 -9.5q-15 0 -31.5 5.5t-24.5 11.5l11 24q28 -14 47 -14q13 0 26 7t22 18q19 22 29.5 63.5t10.5 117.5
q0 73 -6 255t-6 252q0 78 11 123.5t37 71.5q32 32 73 32q13 0 27.5 -4.5t21.5 -10.5l-11 -23q-5 5 -16.5 8.5z" />
    <glyph glyph-name="approxequal" unicode="&#x2248;" horiz-adv-x="574" 
d="M471.5 325.5q-28.5 -23.5 -73.5 -23.5q-25 0 -46 8t-44 19.5t-32 16.5q-31 17 -53.5 25.5t-45.5 8.5q-34 0 -58 -20t-47 -56l-19 14q23 43 56.5 65.5t74.5 22.5q25 0 47 -9t49 -24q10 -7 21 -12q7 -4 27 -14t37.5 -14.5t36.5 -4.5q32 0 55 18t45 58l18 -15
q-20 -40 -48.5 -63.5zM471.5 170q-28.5 -23 -73.5 -23q-28 0 -50.5 9t-71.5 34q-32 17 -54 25.5t-45 8.5q-34 0 -57.5 -20t-47.5 -56l-19 14q22 43 55.5 65.5t74.5 22.5q26 0 48 -8.5t48 -23.5l22 -11q34 -19 54 -27t48 -8q31 0 54 17.5t45 57.5l18 -14q-20 -40 -48.5 -63z
" />
    <glyph glyph-name="notequal" unicode="&#x2260;" horiz-adv-x="574" 
d="M520 381v-27h-188l-74 -156h262v-26h-275l-58 -122l-22 12l52 110h-164v26h177l74 156h-251v27h263l57 119l22 -13l-50 -106h175z" />
    <glyph glyph-name="lessequal" unicode="&#x2264;" horiz-adv-x="574" 
d="M60 339l457 225v-34l-423 -202v-2l423 -204v-35l-457 225v27zM53 44h466v-28h-466v28z" />
    <glyph glyph-name="greaterequal" unicode="&#x2265;" horiz-adv-x="574" 
d="M517 312l-457 -225v35l422 202v2l-422 204v34l457 -225v-27zM53 44h466v-28h-466v28z" />
    <glyph glyph-name="lozenge" unicode="&#x25ca;" horiz-adv-x="553" 
d="M263 -43l-205 382l205 382h26l205 -382l-205 -382h-26zM284 670l-9 21h-1q-9 -23 -20 -44l-165 -307l168 -310q16 -31 18 -44h3q4 13 18 44l166 308l-167 309q-5 9 -11 23z" />
    <glyph glyph-name="z.001" horiz-adv-x="1641" 
 />
    <glyph glyph-name="ampersand.001" horiz-adv-x="574" 
d="M546 0l-89 113q-33 -59 -85 -94.5t-124 -35.5q-51 0 -98 22t-76.5 62t-29.5 93q0 54 28 96t66 71t98 67l-30 39q-38 48 -57 81t-19 67q0 64 43.5 98.5t102.5 34.5q62 0 104 -36t42 -97q0 -38 -18.5 -68.5t-44 -53t-66.5 -50.5l-28 -20l188 -238q27 59 24 126h20
q1 -42 -6.5 -75t-23.5 -69l105 -133h-26zM170.5 517.5q20.5 -33.5 82.5 -113.5q7 5 51 34.5t71 67t27 75.5q0 51 -36.5 82t-88.5 31q-54 0 -90.5 -30t-36.5 -81q0 -32 20.5 -65.5zM183 337.5q-57 -35.5 -88 -81t-31 -96.5q0 -49 26 -84.5t68.5 -54t89.5 -18.5
q68 0 117.5 34.5t78.5 94.5l-196 246q-8 -5 -65 -40.5z" />
    <glyph glyph-name="alternative_B" horiz-adv-x="1632" 
d="M1609 122v-122h-1582v122h320v213q-47 4 -88 12q-107 20 -171 76q-64 54 -65 156q3 -14 16 -34q16 -27 77 -55q62 -29 184 -36q30 -2 47 -2v126h-5h-11l-3 1h-305v121l352 1q191 0 297 -16q109 -17 170 -70q62 -56 62 -168q0 12 -20 41q-22 30 -94 58q-74 29 -215 30
q-24 1 -103 1l-103 1v-127q95 -4 257 -4h57q291 0 483 -22q193 -22 320 -94q123 -71 123 -209q-2 35 -57 80q-57 43 -260 84q-200 40 -598 40h-178q-87 2 -147 7v-211h1240z" />
    <glyph glyph-name="alternative_R" horiz-adv-x="1822" 
d="M501 390l-90 42l-41 19v-330h328v-121h-675v121h324v457h-320v122h466l63 1q166 0 326 -38q156 -39 203 -155q9 -22 9 -102q0 12 -10 33q-11 23 -44 46q-92 63 -287 85q-62 7 -118 8q-86 2 -163 2h-102v-125l68 96q356 -179 559 -180l97 34q0 -21 -4 -28q-5 -11 -17 -25
q-58 -69 -182 -69q-88 0 -193 32q-108 33 -121 40q-4 1 -76 35zM1799 0q0 14 -15 39q-18 28 -77 55q-61 28 -185 36q-115 7 -486 7h-57q-105 0 -234 14q-125 14 -249 84q-123 71 -126 216q4 -27 51 -71q50 -47 182 -84q135 -38 365 -38h338q153 0 257 -19q105 -19 171 -76
q65 -57 65 -163z" />
    <glyph glyph-name="alternative_A" horiz-adv-x="1521" 
d="M1481 122v1l-1 3q-15 54 -89 95q-72 40 -247 64q-173 24 -469 24q-98 0 -127 -1h-179v-186h321v-122h-663v122h320v457h-324v121h514q256 0 474 -68q215 -69 343 -200q125 -130 127 -309v-1zM1481 125q-3 52 -51 146q-52 102 -259 205t-623 103h-179v-160h168
q269 0 482 -33q212 -34 337 -102q118 -65 125 -159zM1481 123zM1138 122h343v-122h-343v122z" />
    <glyph glyph-name="alternative_O" horiz-adv-x="1275" 
d="M737 0q-370 0 -542 151q-168 147 -172 427v122h458q370 0 542 -151q167 -147 172 -428v-121h-458zM1162 268q-33 100 -189 205t-481 105h-469q4 -57 33 -146q33 -101 189 -206t481 -105h469q-4 58 -33 147z" />
    <glyph glyph-name="alternative_L" horiz-adv-x="1446" 
d="M1446 327q0 -98 -128 -172t-342 -115q-212 -40 -459 -40h-490v122h320v457h-324v121h667v-122h-321v-456h159q417 0 619 46q205 47 252 91t47 68z" />
    <glyph glyph-name="alternative_K" horiz-adv-x="1748" 
d="M492 409v-9q-73 -69 -94 -132q-25 -74 -31 -129v-17h162q112 0 169 -1v-122h-675v122q56 1 168 1h155v457h-319v121h340v-533q17 248 170 382q172 151 542 151h124q35 0 44 -1v-121h-179q-325 0 -481 -105q-54 -36 -94 -73q-1 4 -1 9zM1698 -10q-5 33 -17 55
q-13 25 -77 55q-65 29 -194 39q-79 7 -64 5l-76 5q-48 2 -107 2h-178q-148 0 -257 20q-107 20 -171 76q-62 53 -65 153h1q3 -12 15 -30q16 -27 77 -55q62 -29 184 -36l57 -3q178 -11 269 -11h134q118 0 218 -17q97 -18 170 -78q74 -62 81 -180z" />
    <glyph glyph-name="alternative_C" horiz-adv-x="1197" 
d="M1045.5 576.5q16.5 1.5 19.5 1.5h-1042v122h1097v-243q-98 0 -142 -1.5t-114 -5.5q-125 -8 -189 -38q-67 -32 -87 -61q-21 -30 -21 -41q0 74 39.5 127t113.5 82q57 22 124 36t135 18q50 2 66.5 3.5zM1157 121v-121h-190q-258 0 -473 69q-215 67 -343 200
q-126 130 -128 309q2 -53 52 -149q51 -102 259 -205q206 -103 622 -103h201z" />
    <glyph glyph-name="alternative_L2" horiz-adv-x="1377" 
d="M75 271q-50 -96 -52 -149q2 179 128 310q128 131 343 200q216 68 473 68h190v-121h-201q-416 0 -622 -103q-208 -103 -259 -205zM1337 133v-133h-1314v122h695q-64 70 -64 205q0 -16 16 -58q14 -37 77 -82q58 -41 184 -50q56 -4 293 -4h113z" />
    <glyph glyph-name="alternative_S" horiz-adv-x="1140" 
d="M244 578h-29q-142 2 -192 2v121h190q150 0 258 -19q103 -18 166 -75q65 -59 69 -167q-1 13 -16 38q-18 29 -77 58q-64 31 -184 37q-73 4 -185 5zM428 315h-2q-52 1 -81 4.5t-82 11.5q-49 8 -94 29t-78 51q-63 56 -68 168q1 -13 15 -39t77 -57q64 -31 185 -37
q73 -4 184 -5h27q144 -2 195 -2q62 -3 90.5 -6.5t60.5 -11.5q14 -2 20 -4q103 -21 168 -90q64 -67 64 -203q-1 19 -15 55q-15 39 -77 82q-60 41 -185 50q-36 3 -125 3h-191q-64 0 -88 1zM1110 2l-190 -2q-146 -1 -261 22q-103 21 -168 90q-64 67 -64 203q1 -19 15 -55
q15 -39 77 -82q60 -41 185 -50q56 -4 293 -4h113v-122z" />
    </font>
</defs>
</svg>
